<svg id="visual" viewBox="0 0 900 450" width="900" height="450" xmlns="http://www.w3.org/2000/svg" xmlns:xlink="http://www.w3.org/1999/xlink" version="1.1"><rect x="0" y="0" width="900" height="450" fill="#001220"></rect><path d="M0 311L25 315.8C50 320.7 100 330.3 150 330.3C200 330.3 250 320.7 300 323.5C350 326.3 400 341.7 450 351.2C500 360.7 550 364.3 600 355C650 345.7 700 323.3 750 319.7C800 316 850 331 875 338.5L900 346L900 451L875 451C850 451 800 451 750 451C700 451 650 451 600 451C550 451 500 451 450 451C400 451 350 451 300 451C250 451 200 451 150 451C100 451 50 451 25 451L0 451Z" fill="#33cc8a"></path><path d="M0 347L25 354.3C50 361.7 100 376.3 150 373C200 369.7 250 348.3 300 343.3C350 338.3 400 349.7 450 358.8C500 368 550 375 600 377.8C650 380.7 700 379.3 750 371.7C800 364 850 350 875 343L900 336L900 451L875 451C850 451 800 451 750 451C700 451 650 451 600 451C550 451 500 451 450 451C400 451 350 451 300 451C250 451 200 451 150 451C100 451 50 451 25 451L0 451Z" fill="#2aaf7d"></path><path d="M0 388L25 391.2C50 394.3 100 400.7 150 396.7C200 392.7 250 378.3 300 377.5C350 376.7 400 389.3 450 391.7C500 394 550 386 600 380.3C650 374.7 700 371.3 750 368.7C800 366 850 364 875 363L900 362L900 451L875 451C850 451 800 451 750 451C700 451 650 451 600 451C550 451 500 451 450 451C400 451 350 451 300 451C250 451 200 451 150 451C100 451 50 451 25 451L0 451Z" fill="#27936f"></path><path d="M0 420L25 420.3C50 420.7 100 421.3 150 422.3C200 423.3 250 424.7 300 422.8C350 421 400 416 450 415.5C500 415 550 419 600 422C650 425 700 427 750 428.7C800 430.3 850 431.7 875 432.3L900 433L900 451L875 451C850 451 800 451 750 451C700 451 650 451 600 451C550 451 500 451 450 451C400 451 350 451 300 451C250 451 200 451 150 451C100 451 50 451 25 451L0 451Z" fill="#26785f"></path></svg>