<?xml version="1.0" encoding="utf-8"?>
<svg xmlns="http://www.w3.org/2000/svg" xmlns:xlink="http://www.w3.org/1999/xlink" version= "1.1" width="1073px" height="767px" viewBox="-177 328 1073 767">
<g id="layer1">
<g style="fill:rgb(68,197,229); fill-opacity:1.0; stroke-linejoin: miter">
<path d="M-177.00099,327.25183C-177.19917,327.25183,-177.38922,327.33054,-177.52936,327.47067C-177.6695,327.6108,-177.74823,327.80087,-177.74823,327.99905L-177.74722,1094.9999C-177.74722,1095.4127,-177.41267,1095.7472,-176.99998,1095.7472L896.0009,1095.7482C896.1991,1095.7482,896.38916,1095.6693,896.5293,1095.5292C896.66943,1095.389,896.74817,1095.1991,896.74817,1095.0009L896.7472,328.00006C896.7472,327.58737,896.4126,327.25284,895.99994,327.25284L-177.00099,327.25183 Z"/>
</g>
<g>
<g>
<g style="fill:rgb(223,100,69); fill-opacity:1.0; stroke-linejoin: miter">
<path d="M512.58704,1007.3148L333.89362,1008.7103L342.56256,1055.6282L349.9753,1095.7474Q424.74304,1095.7476,499.51074,1095.7474L499.5204,1095.7482Q506.05865,1051.5311,512.59674,1007.3148 Z"/>
</g>
<g style="fill:rgb(38,120,95); fill-opacity:1.0; stroke-linejoin: miter">
<path d="M237.30081,530.5304C237.4498,530.56836,237.85281,531.30273,238.19443,532.1304C238.75906,533.499,239.8417,535.15393,241.76309,537.4657C243.78262,539.93677,245.63742,541.4407,249.32693,543.5901C251.31601,544.7715,253.1088,545.8008,253.35056,545.90173C253.60403,546.031,256.47598,547.249,259.72092,548.646C265.78232,551.2866,272.52115,554.68066,275.30734,556.50073C279.53073,559.2975,282.44992,563.8673,284.64255,571.2047C286.50607,577.3429,287.70206,579.3534,291.60495,582.7488C294.47928,585.2677,297.32614,586.8302,300.4288,587.7191C305.18698,589.0604,311.87656,591.0408,313.96933,591.7462C326.17996,595.7865,336.28378,599.8955,346.7014,605.0099C352.39206,607.8025,353.072,608.15625,356.8868,610.286C360.9675,612.5747,361.2689,612.41626,358.90353,609.18823C356.89145,606.41406,355.93802,605.6393,351.71298,603.2435C349.5743,602.02356,347.06705,600.5547,346.16684,599.99146C344.41934,598.90955,341.09622,596.10913,340.08066,594.85974C337.57816,591.78625,335.0269,587.86707,334.60556,586.4392C333.47598,582.5664,332.85068,580.322,332.33908,578.03064C330.84415,571.57275,330.57278,569.7825,330.33804,565.00684C330.2266,563.11755,330.06735,560.5471,329.991,559.3103C329.90292,558.0453,329.74368,554.9077,329.60104,552.29663C329.45847,549.68604,329.3351,547.2013,329.28433,546.75464C329.2128,546.01624,329.20883,543.98267,329.2253,541.2728C329.2253,540.70557,329.20285,539.6808,329.14407,538.97095C329.0853,538.2612,329.11118,537.51636,329.16696,537.32654C329.36588,536.6764,329.67978,537.1151,329.7781,538.24243C329.83072,538.85486,329.9515,540.0387,330.05325,540.93164C330.14267,541.7958,330.92044,544.4114,331.77652,546.72864C333.23947,550.76294,333.39737,551.0654,335.5474,553.8502C339.41104,558.9302,339.68973,559.2821,342.9974,562.69006C348.3259,568.1681,353.85037,574.76587,355.93784,578.2095C357.0513,580.0193,358.27048,584.7556,358.5126,588.09326C358.59512,589.4269,358.42447,592.16724,358.1412,594.1521C357.41232,599.4248,357.49997,600.6897,358.8815,604.525C360.8176,609.8666,363.92972,614.25635,367.21585,616.23816C372.0773,619.2047,386.22763,628.9197,386.45114,629.46155C386.475,629.51843,387.24887,630.10046,388.14346,630.7324C389.038,631.3645,389.81174,631.94653,389.83536,632.00366C389.87045,632.0886,391.17654,633.15186,392.75992,634.4015C395.6086,636.69653,401.99802,642.2378,404.31345,644.453C405.00143,645.06995,406.21738,646.2372,407.03256,647.00195C408.56033,648.4408,414.5314,654.42126,415.2449,655.2612C415.6158,655.6758,415.71323,655.6686,415.9028,655.1571C416.28793,654.2306,416.58768,649.5355,416.41214,647.57227C416.25644,645.90125,415.89713,644.948,412.78543,637.8888C409.4216,630.30005,409.0131,629.0664,408.31754,625.1155C407.94113,623.0691,407.83243,617.70715,408.06845,616.1752C408.3774,614.57935,409.88412,610.7886,411.64548,607.2921C412.29605,605.9562,413.05356,604.4756,413.2993,603.9404C414.02176,602.3739,416.3649,599.07227,418.71182,596.2689C419.9232,594.83545,421.69907,592.66833,422.7003,591.45386C424.76425,588.9347,429.52994,583.499,430.71384,582.2428C431.16135,581.7916,432.2549,580.6393,433.12717,579.67957C435.1326,577.584,436.12546,577.2418,434.62894,579.1937C433.08566,581.19836,431.59946,584.1477,430.9327,586.6577C430.2217,589.2208,430.158,589.71436,430.28873,592.8627C430.34286,594.2091,430.39255,595.6233,430.379,595.996C430.384,598.5967,430.98343,602.7213,432.27036,609.5641C432.4152,610.2385,432.63113,611.65173,432.76248,612.6985C432.894,613.7455,433.05075,615.0155,433.1365,615.5477C433.2679,616.595,433.61563,620.18896,433.87723,623.2511C434.25436,627.9678,433.506,630.8457,430.8436,634.74646C429.30972,637.01416,427.2905,638.91504,425.03604,640.2451C421.51083,642.2991,419.79794,644.9415,419.03415,649.5604C418.39902,653.36035,418.85806,659.4105,419.81192,660.18506C420.0601,660.3827,421.2255,661.6709,422.35703,663.04004C423.48886,664.40784,424.85208,666.01526,425.37448,666.63477C426.2441,667.61,427.43472,669.1217,430.83133,673.39294C431.41257,674.1544,432.20865,675.19434,432.54617,675.68896C432.9119,676.17236,434.08102,677.79236,435.16293,679.28174C442.37595,689.0879,448.16064,698.5819,455.54132,712.7571C456.64673,714.8707,459.41724,721.1023,461.68744,726.6068C464.65594,733.72437,465.91785,736.5414,466.1103,736.3616C466.68872,735.82263,466.64386,729.96814,466.0047,726.96204C465.35907,723.85754,464.4651,719.0204,464.33344,717.974C463.3999,710.4502,463.45837,707.3557,464.75726,700.71387C465.6217,696.4197,466.31097,694.93494,470.38385,688.9502C474.59705,682.74097,477.33118,679.74475,483.68982,674.28687C484.0421,674.0084,485.5686,672.6112,487.09485,671.2141C490.2948,668.29224,491.50403,667.2595,492.7248,666.25574C497.24725,662.6561,499.912,660.6223,500.04468,660.70105C500.32672,660.81824,500.08258,661.5199,499.7397,661.6614C499.54047,661.74365,498.66168,662.60657,497.8015,663.595C494.76062,666.98486,492.7124,671.56665,491.75793,677.1C491.3963,679.2169,491.1289,680.9962,491.15253,681.0531C491.1753,681.10986,491.0169,682.344,490.815,683.7953C490.5841,685.25793,490.38293,687.2777,490.3647,688.2859C490.30652,689.27795,490.24133,691.3063,490.16058,692.80786C489.88965,700.161,488.7575,710.03796,487.73474,714.5967C486.57965,719.64453,482.0821,725.0034,477.34766,726.95557C473.18402,728.673,470.94403,730.76465,469.29895,734.5459C467.526,738.58105,467.1596,740.19995,467.73627,741.59827C468.53595,743.5377,472.02905,755.2439,473.97284,762.38416C474.8202,765.57214,476.1681,771.5897,476.94995,775.6721C477.18286,777.0449,477.53247,778.70276,477.64844,779.38904C477.99805,781.046,478.60455,784.7007,478.78143,786.2627C478.89734,786.9491,479.04077,788.02466,479.14972,788.61316C479.43097,790.2654,479.8473,793.8646,480.3493,798.96375C480.5714,801.041,481.377,812.6222,481.3924,813.55066C481.38043,814.08826,481.39465,814.8502,481.41003,815.2107C481.52814,818.7324,481.58545,825.1826,481.53253,826.6732C481.51447,827.6813,481.48322,829.06213,481.47815,829.69824C481.44537,830.3457,481.39447,832.0021,481.32275,833.3666C481.25153,834.72974,481.27588,835.92163,481.38495,835.94324C481.50525,835.994,482.16437,834.92126,482.88306,833.58997C483.56244,832.24304,484.25305,830.92334,484.38232,830.6697C485.27557,829.0331,486.56915,822.4608,487.31897,815.9441C487.83795,811.4592,489.5777,804.83545,491.39423,800.5819C493.07635,796.6509,497.07166,789.8319,498.9187,787.8357C500.85516,785.73596,504.91492,782.39246,510.42365,778.3528C511.56097,777.5503,512.9078,776.5276,513.419,776.15015C513.9477,775.7313,514.823,775.1035,515.323,774.69727C517.4143,773.1338,520.6507,771.43225,532.96747,765.4518C535.63446,764.1516,539.1671,762.3613,540.84863,761.50183C544.586,759.5597,558.3652,753.80994,558.4944,754.1233C558.54175,754.23755,557.5068,754.9646,556.15155,755.72375C552.012,758.06604,550.15326,759.46594,546.9904,762.63916C544.2302,765.4127,542.947,767.07605,541.4462,769.82996C541.289,770.09534,539.9852,772.4348,538.55743,774.9595C537.13995,777.5133,534.4452,783.1959,532.5785,787.57007C527.9014,798.6417,522.53986,809.42834,519.7174,813.42944C517.35815,816.77124,515.40576,818.51013,510.6372,821.51135C507.3476,823.56885,503.55347,824.96655,498.495,826.05176C494.61945,826.84875,494.5904,826.86096,492.1947,828.41516C489.68054,830.0862,487.65485,831.8898,485.73175,834.18445C484.17023,836.0625,481.3213,840.24097,481.05048,841.12085C480.9112,841.51135,480.62048,843.80005,480.40552,846.1913C480.19043,848.58276,479.83704,851.93176,479.61377,853.65845C479.38043,855.3578,479.20667,856.79736,479.23016,856.8545C479.37085,857.1963,476.3637,873.28613,475.44226,877.20325C475.3169,877.7888,475.09802,878.7136,474.97217,879.29895C474.8462,879.885,474.1101,882.79175,473.33936,885.7783C470.63666,896.1366,466.95453,907.0316,462.52576,917.73474C461.2522,920.7959,460.2942,923.3264,460.37463,923.36C461.01874,923.62805,466.45984,919.1819,468.91663,916.40027C470.9372,914.09875,471.71362,912.7446,475.79645,904.5204C478.5788,898.9684,483.30316,890.67993,483.84473,890.45605C483.9309,890.42126,484.62628,889.60034,485.38904,888.6179C487.35608,886.105,491.81805,881.7953,495.13068,879.2274C499.59784,875.8176,502.65253,874.3242,508.77643,872.6666C510.66724,872.1537,512.8264,871.5642,513.57434,871.35547C517.202,870.35986,521.7381,869.2234,523.2413,868.9038C525.8941,868.3771,529.1876,867.78674,530.2465,867.6842C532.43243,867.4833,535.2835,867.27466,538.36444,867.1394C540.16833,867.06213,542.5157,866.9291,543.58594,866.8541C544.6567,866.78,545.8362,866.72754,546.19666,866.7123C546.56964,866.72546,547.52606,866.6985,548.3331,866.63257C552.43256,866.37683,556.7099,866.14795,557.31696,866.1643C557.67755,866.1483,559.14954,866.0762,560.5809,865.98645C562.0116,865.8966,563.6213,865.83386,564.1886,865.8336C564.7264,865.8446,566.2217,865.8292,567.5104,865.798C568.7704,865.7787,570.12805,865.7534,570.48895,865.7379C570.8612,865.751,572.3563,865.73486,573.8108,865.7029C575.2775,865.6981,577.14496,865.6952,577.98737,865.7147C578.83,865.73425,579.9477,865.7739,580.5142,865.7737C581.0531,865.7848,582.0211,865.786,582.58887,865.7865C583.19653,865.80286,583.76526,865.9691,583.8356,866.14026C584.02405,866.5969,584.14966,866.578,581.71643,866.7468C578.6826,866.9967,575.05255,867.6593,571.55084,868.63696C568.99713,869.323,567.7138,869.8519,564.4374,871.5366C562.2394,872.677,560.2175,873.8446,559.95123,874.08813C559.6669,874.37134,558.2815,875.54395,556.82733,876.7106C548.9164,883.17676,547.02795,884.98987,539.9103,892.8967C534.7185,898.67505,532.78033,900.60913,525.65393,907.1177C524.4063,908.2997,522.6589,909.8882,521.7846,910.682C517.96106,914.1947,515.7656,915.66736,511.88696,917.2667C508.9781,918.46643,507.46466,918.92395,504.66296,919.412C498.17816,920.51807,494.72308,920.47485,488.562,919.21094C481.4604,917.76794,479.50763,917.8059,474.03796,919.5936C469.9159,920.92725,466.2586,922.9027,462.33252,925.92346C459.98633,927.75867,456.6236,931.01404,456.1355,932.0161C446.77454,950.2588,438.58734,963.17834,427.64325,976.9348C424.70416,980.65063,416.42004,990.3395,416.10608,990.469C416.0205,990.5034,415.09204,991.48816,414.0268,992.6277C411.07635,995.9126,405.9234,1000.9752,405.66968,1000.84595C405.54865,1000.79504,404.94543,999.5757,404.33417,998.0925C403.39276,995.8113,403.30206,995.3479,403.64288,995.0409C403.89233,994.8379,404.50464,994.21814,405.02594,993.7025C405.53564,993.1592,406.61255,992.04785,407.41766,991.24817C412.60986,986.03687,419.29932,978.30664,425.91254,969.9071C428.03156,967.19775,434.38666,958.1699,436.7256,954.5364C441.70654,946.70935,446.95532,937.6703,447.16614,936.4829C447.23633,936.0868,447.1151,934.9022,446.92645,933.87854C446.70947,932.8667,446.45386,931.43787,446.31342,930.6946C445.9953,928.7903,442.87372,921.30066,441.75702,919.7258C440.17493,917.5083,437.71692,914.7848,436.44135,913.87573C435.7716,913.3849,433.9148,912.2809,432.3355,911.36426C427.4073,908.5582,425.66357,907.2423,422.66125,904.00867C416.3329,897.2412,413.4264,891.1654,412.87793,883.6837C412.85522,883.2261,412.6718,881.56616,412.52277,879.9922C411.674,871.86646,411.19617,865.6898,411.23022,863.5067C411.2431,863.1349,411.2367,860.3673,411.1931,857.34924C411.1496,854.3302,411.1432,851.56384,411.12787,851.2029C411.14087,850.8296,411.1604,849.98706,411.16553,849.35095C411.19073,847.4718,410.54028,841.20056,409.82214,836.2241C409.4519,833.70715,409.05078,831.03577,408.9563,830.24084C408.66962,828.0901,404.92145,819.3251,403.2578,816.9075C401.0528,813.7457,399.86237,812.2345,397.9853,810.27234C396.01587,808.2479,395.80078,807.9696,396.3141,807.7577C396.7251,807.6217,400.2649,810.7007,409.72925,819.4114C410.68945,820.2831,412.58795,822.13635,413.94354,823.4796C416.42126,825.92786,416.96533,826.4374,419.0489,828.4147C419.656,828.99854,422.36572,831.68494,425.09918,834.42896C427.82123,837.14404,430.54285,839.8594,431.15002,840.4429C433.9406,843.16284,433.88885,843.11743,435.9593,845.4674C437.68182,847.4603,440.57684,851.4053,442.90588,854.94946C443.71588,856.1836,444.68774,857.651,445.08887,858.2195C445.48975,858.78845,446.52136,860.39844,447.3894,861.7761C448.25775,863.1526,449.3011,864.7916,449.74225,865.37756C451.04547,867.24194,453.00836,872.4059,453.5625,875.4481C455.7165,887.30664,455.32233,893.8762,451.57166,907.43567C450.68903,910.63635,449.91016,913.36035,449.85968,913.4811C449.51135,914.09216,448.5271,919.0697,448.47253,920.39343C448.3216,923.9927,448.34204,924.2843,448.97748,929.062C449.1762,930.5149,449.56616,931.6222,449.8225,931.51636C450.05054,931.42224,452.10242,927.173,454.42004,922.11145C457.17316,916.0039,459.76282,909.4971,463.03784,900.20483C466.62018,890.11865,470.6247,874.01807,472.65186,861.53577C473.3568,857.34094,473.3819,856.9966,474.271,849.52234L474.84894,844.6122L473.87256,842.24536C472.46124,838.8225,470.89886,836.32983,467.2755,831.7516C466.57867,830.8718,463.32373,828.07556,462.01422,827.2479C459.62067,825.73206,457.51526,824.99756,452.7563,824.05676C446.29248,822.78613,441.33472,820.3927,436.33978,816.21204C431.81445,812.4386,428.17944,805.72876,421.04706,787.9481C416.7265,777.14905,412.28693,768.00134,409.77643,764.66565C406.33545,760.0442,400.73532,755.447,395.59946,753.02625C394.51675,752.5051,394.03152,752.1376,394.2247,751.9586C394.49112,751.7147,399.06314,753.3334,403.01718,755.07324C403.91483,755.4701,406.7586,756.7003,409.33093,757.84143C413.52704,759.6814,418.90942,762.13367,425.22083,765.13745C426.3429,765.6753,428.4331,766.6155,429.82568,767.24194C436.2964,770.14685,439.97614,772.4335,448.22327,778.67664C456.6671,785.07166,457.59332,786.0239,460.7359,791.7025C463.42346,796.6006,464.41003,798.82983,465.40723,802.62317C466.74396,807.6449,467.0655,809.8812,468.07513,821.87756C468.48267,826.74927,470.47223,831.7346,474.01416,836.6813C475.05475,838.15344,475.4458,838.29285,475.40527,837.14185C475.39508,836.71216,475.4709,834.7117,475.57532,832.7001C476.05035,822.92773,475.66534,809.93896,474.5971,799.50024C474.4568,798.19006,474.32703,796.7423,474.30475,796.28394C474.26257,795.53394,473.28723,788.3943,472.84253,785.37463C471.4214,776.1835,468.239,762.4794,465.15784,752.3384C463.7389,747.6841,459.88824,736.8917,459.1109,735.41113C457.95367,733.25183,452.66632,730.0597,447.75235,728.58276C444.09744,727.48706,440.7701,727.59094,436.49393,728.9542C431.94864,730.39465,426.26254,730.604,421.03128,729.4917C418.38962,728.912,416.5303,728.0438,413.8298,726.18823C411.26132,724.41064,401.5543,716.1666,399.72897,714.24976C399.0629,713.5238,398.14798,712.59973,397.73117,712.2378C397.332,711.83496,396.6721,711.2069,396.31277,710.82043C393.91342,708.2395,391.2023,705.9535,386.04495,702.1072C381.84665,698.96655,378.668,697.40784,374.49246,696.42737C372.05753,695.86316,367.15903,695.31335,366.56003,695.56067C366.03537,695.744,364.81638,695.3784,365.03116,695.0897C365.13846,694.9453,366.06436,694.76306,367.13565,694.6896C368.19455,694.5869,370.238,694.4448,371.65726,694.3264C373.07663,694.2081,374.53683,694.10693,374.9094,694.1195C375.28177,694.13257,376.51816,694.057,377.68582,693.97534C379.8959,693.83215,384.36325,693.6577,386.0643,693.6572C386.60312,693.66907,387.59946,693.65784,388.2236,693.63416C388.83597,693.5814,389.6674,693.57324,390.02774,693.5574C392.8682,693.4872,393.79636,693.47205,394.66714,693.4794C395.20566,693.4907,396.19077,693.45166,396.81424,693.42737C397.42697,693.3755,398.25723,693.36707,398.61826,693.3512C398.97885,693.3358,399.93582,693.3093,400.76645,693.3003C405.79514,693.19495,413.71786,694.1991,421.72232,695.9701C426.47635,696.9794,428.09445,697.74695,432.2983,700.81934C436.88272,704.16724,439.16586,706.6294,442.55478,711.7717C443.06686,712.5288,446.28043,718.37805,448.1045,721.8303C448.57886,722.7362,449.68378,724.28235,450.5645,725.287C452.2987,727.3081,456.30115,730.29565,456.92822,730.03723C457.1277,729.9551,457.17157,729.7374,457.00385,729.573C456.8239,729.3794,455.5285,726.6444,454.09723,723.4962C447.90897,709.86487,439.9266,695.7706,432.15652,684.8601C431.50516,683.9271,430.61496,682.6594,430.14987,682.01587C429.01425,680.31506,426.02298,676.3777,423.90335,673.74695C422.91544,672.48596,421.6616,670.901,421.11612,670.22546C420.25613,669.1118,416.7001,664.93835,415.7783,663.9176C415.5989,663.72473,414.52078,662.5674,413.45908,661.37024C408.6705,656.0702,408.81522,656.178,405.21213,654.5609C401.11307,652.71313,397.99326,651.8646,394.7427,651.6698C391.29758,651.4889,388.91507,652.10376,385.3273,654.0845C380.0942,657.00977,379.50668,657.28503,376.8718,657.938C372.1642,659.145,368.66653,659.3198,365.58163,658.5565C361.77872,657.5886,351.45566,652.86865,343.97507,648.64575C341.94138,647.51636,337.57718,645.51135,334.25766,644.17786C329.06815,642.1134,327.8503,641.74866,325.34427,641.5797C321.0789,641.2704,317.8221,641.54565,314.32114,642.5228C313.40134,642.80176,312.56552,642.87866,312.50674,642.7363C312.3655,642.39404,316.10208,640.8534,320.44754,639.49524C322.35947,638.8738,325.6025,637.8368,327.72665,637.16125C334.62308,634.94946,345.85013,631.58813,348.07376,631.072C350.05655,630.6217,357.63248,629.7334,361.85727,629.4595C368.13754,629.07227,369.50363,629.3097,375.51688,631.8351C380.49515,633.95264,383.62436,636.19995,388.20078,640.98645C389.4991,642.3534,390.8018,643.6516,391.07333,643.906C391.34586,644.1614,392.24905,645.0565,393.03134,645.9016C393.84244,646.7356,395.34964,647.88257,396.37003,648.4956C398.28397,649.57556,403.06888,651.30615,403.2197,650.94385C403.27,650.82263,402.73618,650.1752,401.9957,649.51306C401.2554,648.8511,400.07986,647.6998,399.32785,647.0093C396.25394,644.00574,384.70877,634.2175,382.88608,633.0343C382.40768,632.76404,382.01474,632.45886,381.9915,632.4015C381.86172,632.08826,377.12613,628.53503,373.1735,625.8273C367.97318,622.1986,358.68027,616.25464,355.0214,614.2589C353.5742,613.421,351.777,612.4602,351.06192,612.021C350.3295,611.62195,348.10654,610.4374,346.10703,609.3927C342.3453,607.4735,342.52365,607.5006,338.4293,607.68726C336.40274,607.7882,332.723,608.739,330.04233,609.8445C327.3046,610.97314,326.88364,611.2467,323.4891,614.18164C318.6072,618.3639,317.47427,619.09827,312.49478,621.1846C307.80215,623.1538,307.08725,623.28186,300.28574,623.2167C295.3928,623.1654,294.27536,623.1261,289.38358,622.6732C276.3387,621.5469,269.37167,621.4828,265.17734,622.4789C262.57193,623.1199,255.76102,625.8618,254.01956,626.9796C252.44931,628.02783,252.3453,627.3701,253.89151,626.2649C255.29062,625.28784,257.6288,623.7562,259.6146,622.50305C260.33804,622.07214,262.0048,621.01697,263.32516,620.1725C264.61618,619.3396,266.42654,618.2258,267.30844,617.69507C268.19113,617.16455,270.17245,615.9812,271.7205,615.0425C283.0361,608.1727,285.58322,606.8225,292.05655,604.1527C300.24197,600.7776,303.9263,599.75854,307.33572,599.8539C307.70847,599.86707,309.14603,599.8751,310.5441,599.86584C314.7084,599.84985,318.71585,600.6669,323.46268,602.54626C325.856,603.4951,328.72025,604.6167,329.82547,605.0283C332.32693,605.9988,338.93265,606.4789,338.60312,605.68054C338.40274,605.1953,318.5795,597.0189,313.46298,595.2914C310.91006,594.442,308.5469,593.6483,308.22507,593.51465C307.90237,593.38025,305.58652,592.69995,303.08096,591.96533C300.5753,591.22974,298.44894,590.60474,298.3165,590.526C297.6077,590.18396,284.67435,587.1426,280.7709,586.416C275.4775,585.3948,274.9506,585.412,270.89908,586.349C267.25302,587.2186,264.6295,588.3015,261.68753,590.14856C259.20694,591.7389,257.7488,593.1405,255.67618,595.96423C253.06808,599.5093,250.85043,601.6581,246.84195,604.4794C244.858,605.8989,239.26791,608.20337,236.86026,608.59595C232.99466,609.2555,224.91214,610.45264,223.97922,610.537C217.79141,610.9867,215.92618,611.1553,214.16385,611.4147C213.03128,611.58154,211.61826,611.797,211.01773,611.8778C210.41714,611.95886,208.65103,612.287,207.1586,612.6344C205.62717,612.9662,203.71768,613.3529,202.90604,613.4879C200.32736,613.9508,192.99283,618.1764,190.00258,620.87756C189.34993,621.4806,188.72481,621.90515,188.58003,621.7977C188.34322,621.6282,189.13002,620.70374,190.70161,619.2544C191.16127,618.8318,191.85896,618.177,192.26132,617.77747C192.63571,617.38965,194.05905,616.0686,195.38089,614.82275C196.71451,613.60547,198.00742,612.371,198.2623,612.09863C198.52914,611.8551,199.40305,611.0615,200.21432,610.35913C201.0264,609.65735,203.61398,607.35583,205.96408,605.2859C212.20615,599.70874,214.90317,597.42847,217.19913,595.71436C219.59732,593.92456,221.54312,592.65515,228.48581,588.2894C230.94992,586.74,234.71439,585.1874,237.18436,584.7029C245.14194,583.1229,247.75504,583.14685,256.58548,584.9778C262.25693,586.109,262.47482,586.15295,265.34152,585.73865C268.3447,585.33435,269.97897,584.92737,269.84952,584.6135C269.74368,584.3568,266.69144,583.9138,258.3226,582.9595C255.44284,582.6123,243.46756,581.8115,243.21042,581.9175C243.09647,581.9646,242.47238,581.9885,241.79593,581.9667C240.08212,581.93884,239.55576,581.9564,236.75491,582.0436C234.39578,582.1492,234.12735,582.22644,229.78238,584.15186C219.82144,588.5598,217.54776,589.19727,211.40799,589.3594C208.06949,589.4352,207.5073,589.36633,204.50626,588.40173C198.95956,586.6846,190.15132,582.64233,184.96107,579.4435C182.14131,577.70325,178.3412,575.36584,176.51302,574.25146C171.28316,571.0359,162.59772,565.1073,162.71527,564.8252C162.76514,564.70447,163.1737,564.80334,163.63983,565.04456C169.12689,568.15393,174.18306,569.57263,178.9822,569.39575C182.69844,569.26514,186.83162,568.92847,188.88991,568.57996C192.06967,568.03613,193.0643,567.85925,194.1047,567.631C194.69308,567.5216,195.53384,567.3749,195.9921,567.353C196.43887,567.30237,197.6633,567.1974,198.71054,567.06665C202.58951,566.6012,207.78781,566.2589,209.7598,566.3478C213.54141,566.45605,219.40237,569.17786,225.39041,573.5829C230.07883,577.0217,236.46768,578.7584,247.39609,579.5243C260.512,580.42126,266.4835,581.0624,275.6592,582.51733C279.5958,583.16345,288.50522,584.86145,291.64694,585.6018C292.8992,585.8867,292.1755,585.1831,289.9752,584.0554C287.40536,582.6792,286.92838,582.5753,281.37796,582.06177C273.4061,581.34436,270.48135,580.48145,265.47128,577.47595C261.5328,575.1289,260.51456,574.114,256.4147,568.46375C251.62393,561.86316,250.81918,560.55994,247.28842,553.3733C240.2081,538.8751,236.44827,530.64734,236.79013,530.50635C236.93295,530.448,237.16812,530.4509,237.30081,530.5304 Z"/>
</g>
<g style="fill:rgb(38,120,95); fill-opacity:1.0; stroke-linejoin: miter">
<path d="M544.17065,516.6593C545.04486,515.1915,545.5056,514.4005,545.49524,514.3761C545.38135,514.2224,528.39496,503.78763,507.70184,491.1712L470.0982,468.2094L423.7023,543.84485L377.33847,619.4994L415.2278,642.6786L453.11945,665.8585L499.3675,590.2571C520.9881,554.91504,539.22174,524.96094,544.17065,516.6593 Z M514.3634,531.6958L484.26868,580.8944L454.17102,630.0925L514.3634,531.6958 Z M442.49472,555.8008C442.50937,555.7759,442.52365,555.75134,442.53995,555.7261C442.55453,555.7018,442.5685,555.6765,442.58353,555.6516 Z M468.80292,504.03275L408.66647,602.338L438.74307,553.17053L468.80292,504.03275 Z"/>
</g>
<g style="fill:rgb(38,120,95); fill-opacity:1.0; stroke-linejoin: miter">
<path d="M548.2845,514.6802C548.16986,514.5271,531.18384,504.09378,510.48975,491.47687L472.8855,468.5149L426.49045,544.1498L380.12582,619.8048L418.01535,642.9833L455.9052,666.1631L502.15436,590.563C527.5957,548.9746,548.34906,514.8462,548.2845,514.6802 Z M454.9967,629.656C450.98077,628.1155,447.26144,628.3406,443.48355,630.36096C442.11154,631.10547,440.91605,632.0398,440.1135,633.0066C439.46603,633.86255,438.72342,634.5309,438.51724,634.5292C437.71725,634.54175,416.25668,621.41174,416.1749,620.8634C416.16684,620.60767,416.45444,619.6599,416.834,618.76685C417.7797,616.6782,417.92514,612.5592,417.17404,610.1825C416.3588,607.7678,414.73392,605.3154,412.92996,603.8373L411.4539,602.64307L441.5292,553.4746L471.589,504.3384L473.8299,505.16855C475.0514,505.62503,476.70435,506.0533,477.49628,506.11923C481.20697,506.3903,486.03595,504.55313,488.21686,502.0129C488.71466,501.40237,489.3847,500.647,489.6991,500.33792L490.24628,499.71518L501.46136,506.57645C514.01074,514.2533,512.9043,513.20105,511.6474,516.1415C510.76453,518.2649,510.63177,521.14014,511.28973,523.87634C511.99646,526.8082,514.24054,530.22144,516.2705,531.46484L517.1492,532.0021L487.05432,581.2002L456.95715,630.397L454.9967,629.656 Z"/>
</g>
<g style="fill:rgb(38,120,95); fill-opacity:1.0; stroke-linejoin: miter">
<path d="M484.93494,575.4042C486.37585,571.62146,486.76843,567.0271,485.97357,563.0842C485.18365,559.2671,483.8731,556.50854,481.40112,553.33093C479.70648,551.12756,479.22833,550.7517,475.7423,548.6184C472.3476,546.5415,471.65485,546.2449,469.16083,545.75903C463.75287,544.6582,458.57233,545.36365,454.0487,547.7196C445.4847,552.1874,440.65775,562.18945,442.5394,571.50415C444.74918,582.3967,454.1054,589.91296,465.01794,589.5066C473.7572,589.1859,481.8556,583.43555,484.93494,575.4042 Z"/>
</g>
<g style="fill:rgb(42,175,134); fill-opacity:1.0; stroke-linejoin: miter">
<path d="M483.2652,578.7882C479.46057,585.00977,472.47125,589.2323,465.01794,589.5066C454.1054,589.91296,444.74918,582.3967,442.5394,571.50415C441.44785,566.09814,442.6133,560.46094,445.45993,555.8091C447.51852,552.44495,450.45544,549.5951,454.0487,547.7196C458.57233,545.36365,463.75287,544.6582,469.16083,545.75903C471.65485,546.2449,472.3476,546.5415,475.7423,548.6184C479.22833,550.7517,479.70648,551.12756,481.40112,553.33093C483.8731,556.50854,485.18365,559.2671,485.97357,563.0842C486.76843,567.0271,486.37585,571.62146,484.93494,575.4042C484.4823,576.58496,483.9195,577.7162,483.2652,578.7882 Z M517.1492,532.0021L516.2705,531.46484C514.24054,530.22144,511.99646,526.8082,511.28973,523.87634C510.63177,521.14014,510.76453,518.2649,511.6474,516.1415C512.9043,513.20105,514.01074,514.2533,501.46136,506.57645L490.24628,499.71518L489.6991,500.33792C489.3847,500.647,488.71466,501.40237,488.21686,502.0129C486.03595,504.55313,481.20697,506.3903,477.49628,506.11923C476.70435,506.0533,475.0514,505.62503,473.8299,505.16855L471.589,504.3384L411.4539,602.64307L412.92996,603.8373C414.73392,605.3154,416.3588,607.7678,417.17404,610.1825C417.92514,612.5592,417.7797,616.6782,416.834,618.76685C416.45444,619.6599,416.16684,620.60767,416.1749,620.8634C416.25668,621.41174,437.71725,634.54175,438.51724,634.5292C438.72342,634.5309,439.46603,633.86255,440.1135,633.0066C440.91605,632.0398,442.11154,631.10547,443.48355,630.36096C447.26144,628.3406,450.98077,628.1155,454.9967,629.656L456.95715,630.397 Z"/>
</g>
<g style="fill:rgb(38,120,95); fill-opacity:1.0; stroke-linejoin: miter">
<path d="M482.03833,768.37964C480.36334,768.7157,479.46747,768.9049,479.45636,768.9291C479.41888,769.11633,483.07495,788.7136,487.59967,812.5233L495.79572,855.8148L583.0117,839.4856L670.21967,823.11975L661.99274,779.47095L653.76514,735.8207L566.67413,752.23645C525.96063,759.90967,491.5147,766.4806,482.03833,768.37964 Z M513.1847,780.3987L569.8593,769.71484L626.53516,759.0327L513.1847,780.3987 Z M579.27234,817.5283C579.2438,817.53406,579.21594,817.5399,579.18634,817.5449C579.1586,817.5504,579.1306,817.5569,579.10187,817.56274 Z M523.23206,832.7446L636.47705,811.39856L579.8381,822.0753L523.23206,832.7446 Z"/>
</g>
<g style="fill:rgb(38,120,95); fill-opacity:1.0; stroke-linejoin: miter">
<path d="M477.81073,766.6565C477.7743,766.84375,481.43103,786.44006,485.95618,810.251L494.15253,853.5427L581.3676,837.2135L668.57623,820.84753L660.3488,777.1992L652.12195,733.55005L565.03156,749.96436C517.12225,758.9945,477.89062,766.4972,477.81073,766.6565 Z M625.6575,758.71326C627.2086,762.725,629.871,765.3325,633.90356,766.7787C635.37585,767.2971,636.8706,767.55676,638.126,767.5033C639.19507,767.4092,640.189,767.51184,640.3261,767.6658C640.8719,768.25085,645.5308,792.97424,645.1789,793.4026C644.9948,793.5803,644.0988,794.00256,643.18195,794.3202C640.99896,795.0198,637.8463,797.6753,636.58765,799.82666C635.3439,802.05115,634.615,804.90125,634.7291,807.2306L634.8336,809.1262L578.19446,819.8048L521.58966,830.47314L520.702,828.25415C520.22144,827.0421,519.43,825.5292,518.9479,824.89746C516.6596,821.96375,512.05756,819.61487,508.71082,819.7014C507.92426,819.7418,506.9145,819.7516,506.47443,819.7257L505.64532,819.7377L503.21075,806.8174C500.48547,792.3607,500.44757,793.8873,503.47107,792.84717C505.6383,792.07715,507.85968,790.24695,509.4474,787.9238C511.14764,785.4325,512.1738,781.47876,511.73395,779.13904L511.5432,778.1271L568.2173,767.4437L624.8921,756.7623L625.6575,758.71326 Z"/>
</g>
<g style="fill:rgb(38,120,95); fill-opacity:1.0; stroke-linejoin: miter">
<path d="M565.3405,772.9033C561.56885,774.37244,557.89795,777.16284,555.50714,780.3976C553.20636,783.54395,552.03973,786.36633,551.34143,790.3313C550.84375,793.06616,550.88586,793.6731,551.6425,797.6892C552.37946,801.6001,552.6241,802.313,553.937,804.4884C556.7482,809.2373,560.74677,812.6063,565.52844,814.38086C574.5866,817.73474,585.24194,814.605,590.88794,806.96106C597.4835,798.0154,596.78174,786.0344,589.15967,778.21423C583.0596,771.948,573.36237,769.79956,565.3405,772.9033 Z"/>
</g>
<g style="fill:rgb(42,175,134); fill-opacity:1.0; stroke-linejoin: miter">
<path d="M568.9704,771.8718C576.1366,770.5199,583.9564,772.8707,589.15967,778.21423C596.78174,786.0344,597.4835,798.0154,590.88794,806.96106C587.61084,811.397,582.64844,814.31445,577.2889,815.3235C573.4134,816.05383,569.32965,815.7876,565.52844,814.38086C560.74677,812.6063,556.7482,809.2373,553.937,804.4884C552.6241,802.313,552.37946,801.6001,551.6425,797.6892C550.88586,793.6731,550.84375,793.06616,551.34143,790.3313C552.03973,786.36633,553.20636,783.54395,555.50714,780.3976C557.89795,777.16284,561.56885,774.37244,565.3405,772.9033C566.52026,772.44714,567.7364,772.1056,568.9704,771.8718 Z M511.5432,778.1271L511.73395,779.13904C512.1738,781.47876,511.14764,785.4325,509.4474,787.9238C507.85968,790.24695,505.6383,792.07715,503.47107,792.84717C500.44757,793.8873,500.48547,792.3607,503.21075,806.8174L505.64532,819.7377L506.47443,819.7257C506.9145,819.7516,507.92426,819.7418,508.71082,819.7014C512.05756,819.61487,516.6596,821.96375,518.9479,824.89746C519.43,825.5292,520.22144,827.0421,520.702,828.25415L521.58966,830.47314L634.8336,809.1262L634.7291,807.2306C634.615,804.90125,635.3439,802.05115,636.58765,799.82666C637.8463,797.6753,640.99896,795.0198,643.18195,794.3202C644.0988,794.00256,644.9948,793.5803,645.1789,793.4026C645.5308,792.97424,640.8719,768.25085,640.3261,767.6658C640.189,767.51184,639.19507,767.4092,638.126,767.5033C636.8706,767.55676,635.37585,767.2971,633.90356,766.7787C629.871,765.3325,627.2086,762.725,625.6575,758.71326L624.8921,756.7623 Z"/>
</g>
<g style="fill:rgb(38,120,95); fill-opacity:1.0; stroke-linejoin: miter">
<path d="M446.28333,765.0841C447.97754,765.3037,448.88647,765.4121,448.90485,765.3927C449.0006,765.22754,451.8318,745.4939,455.19318,721.49243L461.3338,677.8617L373.493,665.31775L285.64755,652.8113L279.42117,696.79016L273.19504,740.7709L360.9457,753.1925C401.96704,759.0001,436.6989,763.83887,446.28333,765.0841 Z M420.64633,743.6996L363.54208,735.61743L306.4373,727.53235L420.64633,743.6996 Z M369.983,687.3131C370.01163,687.3169,370.0397,687.3203,370.0695,687.3253C370.09775,687.32886,370.1263,687.33154,370.15536,687.3353 Z M427.94193,690.8998L313.83896,674.7477L370.90732,682.8253L427.94193,690.8998 Z"/>
</g>
<g style="fill:rgb(38,120,95); fill-opacity:1.0; stroke-linejoin: miter">
<path d="M449.73346,768.0736C449.82825,767.9077,452.65845,748.1752,456.01965,724.17224L462.16046,680.54126L374.32053,667.9978L286.47403,655.4907L280.24832,699.46936L274.02176,743.4486L361.7717,755.87195C410.04327,762.70496,449.60663,768.1987,449.73346,768.0736 Z M307.16592,728.11707C306.98483,723.8196,305.30142,720.4955,301.94693,717.83057C300.7186,716.8668,299.38644,716.141,298.1805,715.7883C297.1379,715.53406,296.22952,715.1179,296.14914,714.928C295.81992,714.199,299.34775,689.2883,299.81833,688.9961C300.0499,688.8867,301.0341,688.7744,302.0045,688.7683C304.29672,688.8065,308.13486,687.3043,310.0179,685.67114C311.9103,683.96375,313.51572,681.49866,314.15573,679.2562L314.66574,677.42737L371.7347,685.5033L428.76767,693.57837L428.89572,695.96436C428.96158,697.26697,429.22537,698.954,429.4789,699.7068C430.70383,703.22,434.308,706.9225,437.50522,707.91516C438.26315,708.12964,439.22256,708.4446,439.63113,708.6105L440.42014,708.86536L438.57645,721.88257C436.51468,736.4491,437.04074,735.01575,433.84323,735.0298C431.54355,735.06274,428.85196,736.08264,426.6022,737.7731C424.192,739.5862,421.95065,743.0012,421.61557,745.3579L421.47153,746.3777L364.368,738.29565L307.2643,730.2106L307.16592,728.11707 Z"/>
</g>
<g style="fill:rgb(38,120,95); fill-opacity:1.0; stroke-linejoin: miter">
<path d="M368.8456,734.0487C372.88937,733.8688,377.26205,732.40454,380.56497,730.1094C383.75436,727.8685,385.76572,725.5702,387.7004,722.0394C389.0499,719.60925,389.20486,719.0211,389.77823,714.97437C390.3361,711.0343,390.33334,710.28064,389.78885,707.7988C388.65152,702.39844,385.94656,697.9243,381.98807,694.7079C374.48666,688.62244,363.3904,688.1644,355.58865,693.5906C346.4697,699.9441,343.2867,711.51587,347.99338,721.3695C351.75827,729.26294,360.25192,734.41174,368.8456,734.0487 Z"/>
</g>
<g style="fill:rgb(42,175,134); fill-opacity:1.0; stroke-linejoin: miter">
<path d="M365.07693,733.85974C357.85605,732.839,351.20523,728.1012,347.99338,721.3695C343.2867,711.51587,346.4697,699.9441,355.58865,693.5906C360.1169,690.4419,365.7534,689.2728,371.15317,690.0381C375.05807,690.5913,378.83994,692.155,381.98807,694.7079C385.94656,697.9243,388.65152,702.39844,389.78885,707.7988C390.33334,710.28064,390.3361,711.0343,389.77823,714.97437C389.20486,719.0211,389.0499,719.60925,387.7004,722.0394C385.76572,725.5702,383.75436,727.8685,380.56497,730.1094C377.26205,732.40454,372.88937,733.8688,368.8456,734.0487C367.582,734.1022,366.32047,734.0348,365.07693,733.85974 Z M421.47153,746.3777L421.61557,745.3579C421.95065,743.0012,424.192,739.5862,426.6022,737.7731C428.85196,736.08264,431.54355,735.06274,433.84323,735.0298C437.04074,735.01575,436.51468,736.4491,438.57645,721.88257L440.42014,708.86536L439.63113,708.6105C439.22256,708.4446,438.26315,708.12964,437.50522,707.91516C434.308,706.9225,430.70383,703.22,429.4789,699.7068C429.22537,698.954,428.96158,697.26697,428.89572,695.96436L428.76767,693.57837L314.66574,677.42737L314.15573,679.2562C313.51572,681.49866,311.9103,683.96375,310.0179,685.67114C308.13486,687.3043,304.29672,688.8065,302.0045,688.7683C301.0341,688.7744,300.0499,688.8867,299.81833,688.9961C299.34775,689.2883,295.81992,714.199,296.14914,714.928C296.22952,715.1179,297.1379,715.53406,298.1805,715.7883C299.38644,716.141,300.7186,716.8668,301.94693,717.83057C305.30142,720.4955,306.98483,723.8196,307.16592,728.11707L307.2643,730.2106 Z"/>
</g>
<g style="fill:rgb(223,100,69); fill-opacity:1.0; stroke-linejoin: miter">
<path d="M323.67255,973.3113L423.29968,973.31177L522.92694,973.312Q522.92694,996.6255,522.92694,1019.9386Q423.29968,1019.9392,323.67255,1019.9396Q323.67255,996.6255,323.67255,973.3113"/>
</g>
<g style="fill:rgb(223,100,69); fill-opacity:1.0; stroke-linejoin: miter">
<path d="M497.88934,926.2871L497.88934,926.2876L497.88928,926.2877L497.88934,926.2871"/>
</g>
</g>
<g style="fill:rgb(255,182,145); fill-opacity:1.0; stroke-linejoin: miter">
<path d="M110.48691,636.93945C107.875084,639.57996,107.15309,643.2307,108.30818,648.3102C108.60598,649.5957,108.86533,650.9636,108.873276,651.36914C108.88055,651.77454,109.03396,652.47375,109.19193,652.93555C109.350105,653.3972,109.54085,654.60095,109.61589,655.60986C109.898,659.5698,110.11347,661.11,110.652725,662.7506C110.9605,663.70886,111.36154,665.1677,111.54918,666.022C111.75809,666.86316,112.00159,667.7134,112.10463,667.8866C112.219864,668.0814,112.33513,668.7151,112.381096,669.3323C112.42667,669.94885,112.51547,670.5399,112.59275,670.6697C112.670135,670.79895,112.754745,671.33386,112.76196,671.8861C112.79062,672.4254,112.995155,673.35767,113.2517,673.9364C113.89018,675.5465,114.72683,678.6189,114.85226,679.8616C114.97918,680.9575,115.34374,684.66296,115.6295,687.4497C115.713165,688.27783,115.7578,689.18774,115.71015,689.4507C115.498825,691.0112,116.73547,695.98267,118.09855,699.00525C118.55684,700.0199,118.99336,701.19434,119.05709,701.5956C119.13365,702.01855,119.43761,702.77405,119.74655,703.2926C120.545235,704.63184,123.14021,711.3407,123.279495,712.4575C123.35117,712.9713,123.598114,714.0243,123.81168,714.77527C124.02556,715.5259,124.4613,716.9934,124.78592,718.02966C125.0892,719.07837,125.362305,720.17456,125.3615,720.46765C125.402565,721.1752,127.15037,725.432,128.45424,727.96313C129.69386,730.3854,130.44759,732.3374,130.75807,733.7916C130.8813,734.39124,131.18083,735.2374,131.4388,735.66956C131.69615,736.1013,132.07277,737.0773,132.28635,737.828C132.50044,738.579,133.19371,740.3318,133.85823,741.692C134.50133,743.0652,135.03246,744.29944,135.02348,744.48083C135.03157,744.74023,135.36139,745.5387,137.70601,750.552C139.44212,754.34753,139.56725,756.0305,138.11223,756.4873C137.51665,756.6669,135.15489,756.14233,134.94867,755.797C134.88467,755.6887,134.33336,755.40283,133.73006,755.1769C133.12743,754.9513,132.17955,754.4912,131.61543,754.1837C129.87187,753.1737,127.23302,751.4979,126.82405,751.1555C126.60882,750.9911,126.25175,750.7356,126.04104,750.6273C124.70573,749.95984,121.7238,747.6095,120.74772,746.46436C120.33952,745.9756,119.630394,745.2279,119.1353,744.7909C117.78024,743.5492,113.69657,738.81116,112.94964,737.55835C112.55426,736.94495,111.8757,736.1498,111.41926,735.7777C108.83345,733.7473,107.80572,732.5156,106.15444,729.40173C102.30995,722.2671,100.946526,719.3906,100.78178,718.2301C100.68833,717.5835,100.23107,716.12854,99.78632,714.9889C99.10926,713.31335,98.76127,712.73047,97.854195,711.749C96.45249,710.18396,92.8243,707.78076,90.6787,706.98096C87.89533,705.9464,84.965706,706.4342,83.21473,708.21045C82.36675,709.0967,81.483635,711.7892,81.84459,712.39404C81.960396,712.5886,82.11763,713.3436,82.214775,714.04663C82.328575,715.12085,82.69706,715.98486,84.2972,719.0123C85.38244,721.0293,86.46743,723.33936,86.69804,724.16833C86.95019,724.984,87.49818,726.29675,87.96209,727.07385C88.42556,727.85144,89.02953,729.3069,89.31963,730.33374C89.610054,731.36096,90.08555,732.59985,90.3688,733.07495C90.64358,733.5851,91.04632,734.4574,91.26012,735.0613C91.49105,735.74365,92.298485,737.04846,93.402794,738.5563C94.884674,740.60034,95.30107,741.34766,96.13167,743.42834C96.94078,745.5222,98.14681,747.6432,103.90728,757.35376C111.920746,770.84436,110.66162,769.3705,116.2474,772.01245C120.22242,773.9166,120.57565,774.1156,122.35787,775.1903C123.18447,775.6929,124.7084,776.6288,125.79378,777.27C126.85723,777.9242,127.950935,778.5309,128.23985,778.6222C128.51546,778.692,128.7992,778.874,128.864,778.98193C128.94101,779.1113,129.45772,779.3887,130.00514,779.6188C130.85356,779.9623,134.00998,781.62256,136.64531,783.0962C137.48087,783.56445,141.67351,786.27576,143.46808,787.51807C144.9662,788.55786,146.47188,789.8557,146.79387,790.3956C146.93556,790.6328,147.39609,791.0614,147.82616,791.3899C148.24374,791.69763,149.46498,792.96045,150.52632,794.2009C152.2376,796.13745,152.56831,796.6433,153.02205,797.8949C153.30861,798.71936,153.74481,799.8933,153.9975,800.5631C154.2375,801.2103,154.4853,802.1167,154.5312,802.58655C154.5859,803.0226,154.76045,803.8556,154.91426,804.40784C155.06776,804.95996,155.35326,806.2245,155.53154,807.25977C155.69713,808.2739,156.03365,809.625,156.27379,810.272C156.6924,811.51587,157.33902,814.76013,157.25554,815.308C157.2245,815.50146,157.4628,816.8823,157.78612,818.3584C158.65071,822.26416,158.80338,823.25574,158.80096,823.989C158.78282,824.3513,158.92346,825.0287,159.08173,825.4905C159.24019,825.9525,159.45598,827.3462,159.58195,828.58826C159.69917,829.86475,159.88585,831.0128,159.97585,831.1642C160.06647,831.31494,160.14212,831.88477,160.13614,832.41516C160.13019,832.94617,160.18082,833.47156,160.24529,833.57996C160.4896,833.99036,161.21767,841.9874,161.04019,842.3279C160.99196,842.4437,161.06036,842.90173,161.22685,843.32874C161.52187,844.2656,161.85536,846.9359,161.7368,847.6211C161.68869,847.8843,161.7259,848.3893,161.81999,848.74316C161.91356,849.0969,161.94188,849.7826,161.9193,850.23486C161.87492,850.70105,162.01036,853.13806,162.20634,855.6272C162.73956,862.36487,162.64873,863.8822,161.25243,871.3606C159.50969,880.7146,158.5413,883.31213,155.77638,886.4823C154.9545,887.4116,153.91635,888.61646,153.4405,889.19275C152.97327,889.735,151.9134,890.9523,151.09091,891.88135C150.28207,892.83215,149.5421,893.80054,149.4379,894.0675C149.36783,894.3434,149.18619,894.62744,149.07831,894.69165C148.97018,894.7562,148.4833,896.2471,147.99084,897.9751C147.51144,899.7241,147.05505,901.1681,146.96825,901.21924C146.90341,901.25757,146.69772,902.43494,146.50832,903.8358C146.32727,905.20264,146.11287,906.41394,146.05229,906.5078C145.9913,906.6028,145.78508,907.9264,145.63037,909.48303C145.4616,911.0176,145.17104,913.182,144.96974,914.2677C144.76831,915.354,144.64413,916.56995,144.65173,916.97534C144.69519,918.3252,143.85281,925.0635,143.35974,927.0847C143.1633,927.9337,142.90149,929.2611,142.79105,930.0587C142.4521,932.4862,146.41289,950.5115,148.90327,949.32007C151.42386,948.1416,152.44211,946.36633,152.56668,946.3502C162.94003,944.9529,159.42235,935.36646,186.98203,918.93445C213.76358,902.9673,235.63466,889.8102,235.5831,889.72327C235.51868,889.6157,235.6189,889.2925,235.82259,888.9955C235.99133,888.6896,236.74536,887.4502,237.45563,886.23596C238.18805,885.00903,239.24963,883.20483,239.85625,882.2578C240.45001,881.2888,240.9744,880.3026,241.01341,880.0741C241.05318,879.8458,241.14882,879.6134,241.25688,879.5491C241.40785,879.45874,242.12306,878.15393,242.92511,876.50415C244.2963,873.69653,244.99863,872.22375,245.12479,871.79724C245.36404,871.06934,247.67285,867.3793,248.45168,866.4762C248.83704,866.0416,249.32167,865.4302,249.5208,865.07715C249.74191,864.7114,250.03209,864.36304,250.14006,864.2986C250.37749,864.1564,252.97134,860.3563,253.6602,859.1548C253.85959,858.8021,254.4533,857.83325,254.9989,856.9812C255.54471,856.1289,256.22067,854.9059,256.5242,854.28564C256.81506,853.64417,257.28333,852.8082,257.5778,852.3688C257.8635,851.9645,258.3618,851.08215,258.69595,850.41455C259.02975,849.7471,259.65347,848.5846,260.11725,847.8401C260.56757,847.07336,261.20493,845.9326,261.51706,845.2782C261.97263,844.2743,262.95215,842.578,264.36017,840.27454C265.19626,838.92725,269.1804,833.0386,269.33112,832.9485C269.43936,832.8839,269.55643,832.63806,269.58334,832.38855C269.63126,832.12585,269.8828,831.7129,270.13348,831.44604C270.39716,831.2007,271.449,829.724,272.48404,828.17053C273.5065,826.595,274.53665,825.1317,274.74454,824.89014C274.9736,824.63684,275.4246,823.87036,275.74548,823.18164C276.05386,822.4701,276.431,821.6305,276.58743,821.3032C277.13394,820.15784,277.88058,818.5127,278.49673,817.0913C278.85648,816.3202,279.44662,815.00256,279.8373,814.1842C280.2408,813.38745,280.79587,812.20703,281.0779,811.6C281.3603,810.9928,281.811,810.0792,282.07974,809.5973C283.2758,807.47876,285.57764,803.23706,286.1284,802.1478C286.46228,801.4801,286.9436,800.5198,287.21268,800.03796C287.68912,799.16736,288.7781,796.8202,289.12558,795.8811C289.20816,795.6273,289.6819,794.40784,290.12952,793.1455C290.59012,791.9049,291.14157,790.5226,291.34583,790.07886C292.22647,788.26526,292.4215,787.8563,292.78983,787.19775C293.0107,786.83167,293.37515,786.1166,293.6179,785.59155C293.852,785.10046,294.5718,783.8517,295.21713,782.8229C295.9925,781.5702,296.57864,780.1964,296.98376,778.6664C297.72495,775.73596,297.39755,774.05725,295.2445,769.8075C294.4164,768.22217,293.76105,766.6809,293.7276,766.3793C293.7283,766.08594,293.3905,765.17505,293.02603,764.3672C292.19415,762.57983,291.2633,759.2999,291.39023,758.57983C291.4255,758.2949,291.311,757.51404,291.13614,756.82837C289.7444,751.7445,289.46014,750.1865,289.42712,748.0687C289.3613,745.35645,288.8737,739.38196,288.52966,737.479C287.5535,731.9136,286.81555,730.3323,284.9205,729.5593C283.7361,729.09485,281.7819,729.20593,280.78857,729.79846C280.03296,730.2488,278.0139,730.3988,277.48907,730.00903C277.29935,729.88806,276.01138,728.0211,274.61136,725.8695C271.88895,721.69604,268.5244,717.2318,266.8212,715.55347C266.24927,714.9872,265.59177,714.17883,265.36017,713.7905C264.53586,712.4077,262.13763,711.0858,259.18945,710.41345C257.6859,710.0513,256.34915,709.82336,256.24164,709.88745C256.11176,709.9646,255.44374,709.92395,254.7147,709.8318C254.02107,709.74805,253.11124,709.64624,252.7491,709.62805C252.38667,709.60974,250.9381,709.53687,249.54507,709.45935C245.25522,709.23596,244.37518,709.23376,243.09853,709.3508C242.58504,709.4231,241.11823,709.5658,239.88464,709.65686C238.64247,709.78284,237.5247,709.922,237.39513,709.99927C237.1576,710.1406,233.52979,710.4885,230.95503,710.58923C230.10121,710.6301,227.94865,710.80066,226.20161,710.96423C224.44171,711.10583,222.51373,711.2599,221.953,711.3015C220.58112,711.3579,219.00478,712.2982,217.6462,713.8987C216.43005,715.2971,214.93237,717.449,214.67993,718.1553C214.49289,718.67676,211.75574,722.9734,209.92422,725.64624C209.23131,726.64465,208.55974,727.6305,208.45161,727.8417C208.34288,728.0526,207.79718,728.9048,207.2387,729.7355C206.67996,730.5665,206.07338,731.51355,205.86133,731.84485C205.66187,732.19775,205.05153,733.23596,204.47975,734.1913C203.9159,735.11255,203.20967,736.38257,202.92766,736.99023C201.90816,739.2079,200.87383,740.6156,199.80635,741.281C198.5145,742.10974,197.8463,742.069,194.75708,741.01196C192.65054,740.2777,191.71628,739.69324,189.70793,737.699C188.6502,736.6614,186.09682,731.88904,186.01831,730.8237C185.99373,730.3408,185.68866,728.3557,185.34074,726.39685C185.01375,724.4252,184.63704,721.9275,184.53671,720.875C184.42307,719.80066,184.27077,718.662,184.18993,718.32947C184.10895,717.9968,184.0775,716.96216,184.11014,716.0348C184.20726,713.6936,184.19894,713.5812,183.89839,709.984C183.56123,705.73486,183.51169,704.9158,183.5917,704.01843C183.63203,703.49695,183.30069,701.7621,182.72069,699.41516C182.51158,698.57336,182.25974,697.61084,182.18733,697.2438C181.92732,696.1692,181.66884,691.4635,181.82243,690.4935C181.89735,689.98035,181.98642,688.90234,181.99722,688.1349C182.01663,687.33276,182.04562,686.20325,182.0775,685.56946C182.2105,682.79675,182.28307,681.49475,182.32661,681.1749C182.37062,681.00305,182.38048,680.52856,182.35153,680.1361C182.33513,679.76514,182.42422,678.8341,182.57318,678.1012C182.80931,676.7307,182.99147,674.9242,183.03061,673.17334C183.08075,670.65515,183.21802,669.4612,183.51955,667.905C184.07468,665.3495,184.50722,661.7539,184.67972,658.6061C184.82608,655.56177,185.1735,653.2473,186.00754,649.4418C186.28334,648.13574,186.63402,646.02295,186.79729,644.72546C187.7998,636.1935,188.36082,632.9606,188.87946,632.6516C189.16019,632.48413,189.56793,628.5521,189.43304,627.3441C189.37065,626.6493,189.23155,625.3856,189.13475,624.5355C189.03816,623.68555,188.87202,622.8185,188.76892,622.6455C188.66612,622.47253,188.46098,621.6875,188.31284,620.8977C187.7392,617.7263,185.39131,613.8862,183.08401,612.27563C179.60191,609.87244,174.02725,610.8832,172.18935,614.23364C171.44386,615.5851,170.5176,618.45044,170.36656,619.9166C170.30022,620.5416,169.92834,622.3734,169.56207,623.968C169.20798,625.58435,168.7235,627.71765,168.49217,628.7046C168.25227,629.72595,167.82039,631.3594,167.48572,632.3203C167.16422,633.3026,166.75378,635.06946,166.6039,636.2422C166.43254,637.42725,165.9864,639.62573,165.60255,641.14294C165.22743,642.62537,164.76875,644.80176,164.60583,645.95264C164.30745,647.8579,163.73875,650.6852,163.19392,652.9138C163.0717,653.39624,162.97038,654.15955,162.96896,654.5991C162.94638,655.0521,162.78896,655.6726,162.59848,655.9911C161.75822,657.42957,159.90086,661.5812,159.4221,663.0375C157.90392,667.8075,156.57994,673.98376,156.54718,676.43335C156.51866,678.79224,155.18965,685.3522,153.08769,693.66113C151.77966,698.8324,151.50356,700.43115,151.46458,703.55774C151.47185,703.9635,151.57637,705.2186,151.73705,706.3229C152.39171,711.3491,152.3232,712.7073,151.45955,713.2223C151.11359,713.42847,150.64763,713.5304,150.41484,713.43506C149.67418,713.17444,148.64323,711.59265,147.81691,709.4214C147.38062,708.24695,146.424,706.29956,145.69017,705.06824C144.96902,703.85876,144.30876,702.5542,144.25789,702.17505C144.1855,701.8081,143.58174,700.35266,142.9127,698.9364C142.24385,697.52,141.37462,695.37463,140.99385,694.19604C140.57866,693.0093,140.03954,691.66187,139.75609,691.18677C139.47252,690.71155,138.97604,689.4855,138.65973,688.4149C138.33482,687.379,137.53474,685.1041,136.87938,683.41626C135.58226,680.0619,135.22299,679.0171,134.95491,677.8303C134.86523,677.38586,134.51546,676.01355,134.20834,674.76196C133.86694,673.50183,133.58202,672.0912,133.54454,671.58606C133.49818,671.1157,133.32393,670.2832,133.16151,669.7649C132.41301,667.57654,131.58876,664.67163,131.56435,664.1885C131.56517,663.8954,131.20598,662.85046,130.80745,661.8882C130.37436,660.9165,129.98082,659.71716,129.90045,659.2384C129.85408,658.7678,129.55934,657.8312,129.2979,657.19617C128.99803,656.4971,128.69666,654.7147,128.54251,652.787C128.41463,650.7551,128.11757,649.02893,127.757935,648.1315C127.4367,647.298,126.01615,644.8662,124.294495,642.1747C121.4728,637.7379,121.34842,637.5775,120.00548,636.65125C118.3093,635.52563,115.840096,635.0657,113.49254,635.4984C111.857185,635.8003,111.37808,636.0276,110.48691,636.93945L110.48361,636.9414 Z M242.40558,734.9999C243.49252,734.9081,244.59277,734.838,244.82982,734.8434C246.529,734.796,248.21176,734.52454,249.23056,734.1222C251.29877,733.27014,252.73003,733.4114,254.66296,734.6891C256.52255,735.89355,258.231,737.18774,258.41135,737.48975C258.50162,737.6416,259.1464,738.2811,259.8434,738.8612C261.1816,740.0254,262.52573,740.5116,264.6428,740.62524C267.43658,740.7451,270.2903,741.2102,270.69055,741.5867C271.7227,742.58105,271.40356,744.0598,269.5969,746.9225C268.4668,748.7091,267.89902,751.2434,267.67203,755.3312C267.65317,755.98596,267.13748,758.4603,266.57867,760.81335C266.02023,763.1669,265.52213,765.57166,265.48553,766.1492C265.35913,768.3917,265.47525,769.96216,265.7715,770.4586C266.5183,771.7114,266.59842,772.48364,266.1207,773.49976C265.84784,774.07275,265.37982,774.7611,265.08575,775.0536C264.61038,775.4839,264.20303,776.0779,262.29697,779.11743C262.067,779.51733,261.67252,780.2799,261.44263,780.827C261.21286,781.3738,260.83493,782.21375,260.5878,782.6832C260.3408,783.15283,259.74252,784.3584,259.2432,785.38794C258.16324,787.70056,255.84055,791.8085,255.55933,791.97534C255.43,792.05273,255.30435,792.3324,255.25612,792.5956C255.12434,793.40576,252.64107,794.74023,250.9503,794.8994C249.72937,795.0121,246.56963,794.5249,243.65216,793.8054C243.191,793.6703,241.88509,793.39465,240.78563,793.172C239.68675,792.94934,237.47644,792.3347,235.89488,791.84326C234.32216,791.3165,232.85727,790.8729,232.66367,790.84204C231.15074,790.5145,225.15094,787.91455,223.91087,787.01416C222.9725,786.3729,222.27786,785.0604,222.40527,784.1937C222.45396,783.78455,222.5705,782.3096,222.6473,780.9166C222.72427,779.5243,222.83145,778.23083,222.84918,778.01514C223.1568,776.0759,223.30019,774.0575,223.24364,772.68567C223.1985,771.7755,223.20593,770.80554,223.24094,770.5205C223.31065,770.2445,223.28612,769.9083,223.2216,769.80054C222.92534,769.3037,223.94434,764.0416,224.76624,761.7367C224.87903,761.4348,225.21399,760.47424,225.50081,759.6295C226.03969,758.07837,227.24054,755.8695,227.69403,755.5991C228.21254,755.2898,232.07156,749.38806,233.06064,747.36414C233.48148,746.4983,233.88887,745.75757,233.97525,745.70593C234.0402,745.66785,234.30867,745.1853,234.56491,744.68164C234.82904,744.14343,235.56209,742.6233,236.21721,741.26636C238.1821,737.19666,238.88824,736.073,239.78223,735.5105C240.12773,735.30444,241.30579,735.07056,242.40558,734.9999L242.40245,735.0017 Z"/>
</g>
<g style="fill:rgb(255,255,255); fill-opacity:1.0; stroke-linejoin: miter">
<path d="M257.9414,938.72314L144.57936,937.2909L145.48149,865.833L145.53973,861.22754L258.90305,862.6594L257.9414,938.72314"/>
</g>
<g style="fill:rgb(0,0,0); fill-opacity:1.0; stroke-linejoin: miter">
<path d="M132.96878,915.30774L200.11897,915.3082L267.26917,915.30884Q267.26917,1005.1249,267.26917,1094.9408Q200.11897,1094.9413,132.96878,1094.9418Q132.96878,1005.12476,132.96878,915.30774"/>
</g>
<g style="fill:rgb(38,120,95); fill-opacity:1.0; stroke-linejoin: miter">
<path d="M279.2548,723.806L276.48566,722.26587L273.02466,740.2926Q274.44583,736.95044,275.27933,735.3633Q276.45493,733.194,277.012,732.5907Q278.44553,730.66284,281.74014,729.4265L279.2548,723.806"/>
</g>
</g>
</g>
</svg>