<?xml version="1.0" encoding="utf-8"?>
<svg xmlns="http://www.w3.org/2000/svg" xmlns:xlink="http://www.w3.org/1999/xlink" version= "1.1" width="640px" height="426px" viewBox="-600 64 1920 1300">
<g id="layer1">
<g style="fill:#0c376e; fill-opacity:1.0; stroke-linejoin: miter">
<path d="M-600.001,62.20566C-600.4766,62.20566,-600.9328,62.39462,-601.26917,62.730957C-601.6055,63.067295,-601.79443,63.523468,-601.79443,63.999123L-601.79346,1364.0001C-601.79346,1364.9906,-600.9905,1365.7936,-600.0,1365.7936L1320.001,1365.7946C1320.4767,1365.7946,1320.9329,1365.6056,1321.2692,1365.2693C1321.6055,1364.933,1321.7944,1364.4768,1321.7944,1364.0011L1321.7935,64.00012C1321.7935,63.009624,1320.9905,62.20666,1320.0,62.20666L-600.001,62.20566 Z"/>
</g>
</g>
<g id="layer2">
<g style="fill:rgb(0,0,0); fill-opacity:0.20784314; stroke-linejoin: miter">
<path d="M1245.9419,1175.8378L1238.2095,1183.1405Q1238.7086,1185.7859,1177.0426,1197.9696Q1148.6332,1202.7822,1109.5302,1207.4209Q1031.3239,1216.6982,910.3426,1225.2799Q788.5232,1233.8768,647.38367,1239.9001Q615.1175,1241.8081,424.80704,1247.4882Q346.99216,1249.535,264.34723,1250.9385Q106.58887,1253.1376,-23.15961,1252.0858L-86.28324,1251.3569Q-147.65627,1250.4246,-202.0268,1248.6798Q-256.39728,1246.9349,-303.76532,1244.3772Q-515.31,1231.5868,-479.98517,1211.5933Q-464.48495,1201.6874,-402.5489,1192.1687Q-371.5809,1187.4094,-329.00385,1182.747Q-314.28464,1180.2974,-176.52536,1169.0925Q52.45443,1151.9482,379.31787,1143.7554Q542.76166,1140.1587,681.8671,1139.9487Q751.41986,1139.8439,814.888,1140.5858Q850.4248,1140.4275,991.60175,1144.716Q1045.9429,1146.7277,1088.6927,1149.3821Q1185.424,1156.5806,1190.8602,1158.7916Q1241.5845,1166.029,1245.9419,1175.8378"/>
</g>
<g style="fill:rgb(146,159,168); fill-opacity:1.0; stroke-linejoin: miter">
<path d="M-81.11815,1123.2455L-105.772644,1078.1785L-130.42825,1033.1099Q-92.99147,1012.62885,-55.554188,992.1463Q-30.897984,1037.2145,-6.242796,1082.282L-81.11815,1123.2455"/>
</g>
<g style="fill:rgb(38,120,95); fill-opacity:1.0; stroke-linejoin: miter">
<path d="M-150.49936,964.3635C-154.40169,970.3867,-156.46135,973.63544,-156.42104,973.73865C-155.96785,974.4007,-86.31545,1020.88995,-1.4493388,1077.1233L152.7663,1179.4581L359.47983,869.3065L566.0585,559.07526L410.6796,455.7864L255.29376,352.49478L49.20794,662.51807C-47.136772,807.44904,-128.41295,930.2989,-150.49936,964.3635 Z M-23.00139,905.9612L111.10643,704.2068L245.22308,502.45633L-23.00139,905.9612 Z M282.4889,816.14825C282.42184,816.24976,282.35715,816.3497,282.2863,816.4542C282.22107,816.55316,282.1594,816.6569,282.09235,816.7606 Z M163.87053,1029.2894L431.84424,626.15625L297.8208,827.78296L163.87053,1029.2894 Z"/>
</g>
<g style="fill:rgb(38,120,95); fill-opacity:1.0; stroke-linejoin: miter">
<path d="M-168.08109,972.02185C-167.62361,972.6807,-97.97269,1019.16376,-13.103201,1075.3993L141.11433,1177.7341L347.82538,867.5854L554.4056,557.353L399.02725,454.0659L243.64719,350.77597L37.55834,660.79254C-75.813416,831.33936,-168.32553,971.31415,-168.08109,972.02185 Z M241.68832,504.15765C258.3022,511.2601,273.95062,510.90384,290.12686,503.01987C296.00433,500.11288,301.1686,496.38065,304.69122,492.44846C307.54276,488.95792,310.76678,486.27094,311.63226,486.3095C314.9926,486.38354,402.99863,544.89154,403.25516,547.20636C403.24893,548.2815,401.8911,552.2134,400.15747,555.90173C395.85666,564.5182,394.59628,581.78674,397.3726,591.8822C400.41385,602.1462,406.84616,612.6983,414.1848,619.1874L420.19135,624.43396L286.1723,826.06506L152.22342,1027.5648L142.94684,1023.7259C137.89189,1021.6149,131.02112,1019.5573,127.70697,1019.1544C112.175125,1017.4301,91.61244,1024.3785,82.05706,1034.6962C79.87148,1037.18,76.938515,1040.245,75.57053,1041.4921L73.17378,1044.02L27.183006,1013.4437C-24.280119,979.235,-19.801159,983.826,-14.062164,971.6838C-10.019118,962.9083,-9.007801,950.8599,-11.336047,939.2722C-13.839293,926.8528,-22.718838,912.16956,-31.044527,906.6291L-34.647076,904.2343L99.461334,702.4826L233.5765,500.73557L241.68832,504.15765 Z"/>
</g>
<g style="fill:rgb(38,120,95); fill-opacity:1.0; stroke-linejoin: miter">
<path d="M107.44006,727.14746C100.79419,742.7964,98.41833,762.01953,101.1325,778.69775C103.84428,794.8443,108.90982,806.6307,118.783005,820.3589C125.54758,829.87787,127.49579,831.5313,141.79152,841.03595C155.71326,850.2923,158.5749,851.6479,168.96759,854.0804C191.49109,859.55664,213.35152,857.4144,232.71075,848.2407C269.3655,830.84186,291.20868,789.62134,284.78384,750.22424C277.22998,704.1537,239.14548,671.1212,193.27414,671.1021C156.54027,671.06445,121.63652,693.921,107.44006,727.14746 Z"/>
</g>
<g style="fill:rgb(42,175,134); fill-opacity:1.0; stroke-linejoin: miter">
<path d="M114.985886,713.20636C131.94035,687.6927,161.94452,671.07416,193.27414,671.1021C239.14548,671.1212,277.22998,704.1537,284.78384,750.22424C288.51013,773.08905,282.72702,796.5686,270.04092,815.6429C260.87042,829.43945,248.09128,840.93726,232.71075,848.2407C213.35152,857.4144,191.49109,859.55664,168.96759,854.0804C158.5749,851.6479,155.71326,850.2923,141.79152,841.03595C127.49579,831.5313,125.54758,829.87787,118.783005,820.3589C108.90982,806.6307,103.84428,794.8443,101.1325,778.69775C98.41833,762.01953,100.79419,742.7964,107.44006,727.14746C109.52878,722.2612,112.069214,717.6033,114.985886,713.20636 Z M-34.647076,904.2343L-31.044527,906.6291C-22.718838,912.16956,-13.839293,926.8528,-11.336047,939.2722C-9.007801,950.8599,-10.019118,962.9083,-14.062164,971.6838C-19.801159,983.826,-24.280119,979.235,27.183006,1013.4437L73.17378,1044.02L75.57053,1041.4921C76.938515,1040.245,79.87148,1037.18,82.05706,1034.6962C91.61244,1024.3785,112.175125,1017.4301,127.70697,1019.1544C131.02112,1019.5573,137.89189,1021.6149,142.94684,1023.7259L152.22342,1027.5648L420.19135,624.43396L414.1848,619.1874C406.84616,612.6983,400.41385,602.1462,397.3726,591.8822C394.59628,581.78674,395.85666,564.5182,400.15747,555.90173C401.8911,552.2134,403.24893,548.2815,403.25516,547.20636C402.99863,544.89154,314.9926,486.38354,311.63226,486.3095C310.76678,486.27094,307.54276,488.95792,304.69122,492.44846C301.1686,496.38065,296.00433,500.11288,290.12686,503.01987C273.95062,510.90384,258.3022,511.2601,241.68832,504.15765L233.5765,500.73557 Z"/>
</g>
<g style="fill:rgb(18,91,69); fill-opacity:1.0; stroke-linejoin: miter">
<path d="M140.39204,727.907L152.26312,734.5652Q150.77266,746.7737,156.15352,757.944Q161.5344,769.1156,172.87386,775.4758Q180.13882,779.55096,188.28363,780.39325Q196.25319,781.13605,203.72058,779.035Q211.1879,776.9342,217.69952,771.9684Q224.11238,767.1808,228.18762,759.9158L228.78429,758.8523Q230.33066,756.9254,232.72116,756.4021Q235.10965,755.87897,237.41269,757.1706Q239.89392,758.5619,240.67203,761.32825Q241.45013,764.0941,240.0586,766.5744Q238.66714,769.05396,235.9009,769.83276Q233.13556,770.6108,230.6553,769.2194L214.15776,798.63153Q219.82791,801.8119,225.95953,802.9225Q231.81555,804.11096,237.93524,803.58276Q243.77747,803.1333,249.43011,800.94635Q254.90472,798.6601,259.63528,794.7918L273.1027,802.3459L289.79834,772.5782L274.7378,764.13104Q274.9013,753.04175,269.45633,743.2324Q264.1871,733.5228,253.91074,727.7582Q246.64572,723.68353,238.5004,722.8411Q230.5314,722.0976,223.064,724.19916Q215.59715,726.2994,209.08553,731.2653Q202.67265,736.05396,198.59712,743.31866L198.00188,744.38196Q196.45508,746.30945,193.88788,746.73315Q191.49739,747.25586,189.37204,746.063Q186.89172,744.6713,185.93547,741.8069Q185.15785,739.0407,186.54883,736.56036Q187.93982,734.07983,190.88286,733.4009Q193.64957,732.6238,196.12926,734.01416L212.62679,704.6019Q202.35048,698.8372,191.1406,699.3055Q179.93073,699.7721,170.55353,705.69324L157.08717,698.1402 Z"/>
</g>
<g style="fill:rgb(42,175,134); fill-opacity:1.0; stroke-linejoin: miter">
<path d="M140.482,731.23444L152.35205,737.89374Q150.86261,750.10114,156.24303,761.27216Q161.62387,772.44305,172.96382,778.8038Q180.22832,782.8784,188.37456,783.7202Q196.34323,784.4635,203.80997,782.363Q211.27742,780.2614,217.78854,775.2962Q224.20232,770.508,228.27745,763.24335L228.87364,762.1795Q230.42061,760.2526,232.81064,759.72955Q235.19919,759.2062,237.5036,760.4985Q239.98386,761.88934,240.76193,764.65546Q241.53906,767.42096,240.14807,769.9015Q238.75662,772.3818,235.99084,773.16077Q233.2255,773.93823,230.7443,772.5462L214.24779,801.9598Q219.9174,805.1398,226.04948,806.2507Q231.90552,807.4386,238.02475,806.9107Q243.86697,806.46124,249.51965,804.2738Q254.9942,801.98755,259.7263,798.1202L273.19217,805.67303L289.8879,775.90576L274.82776,767.45825Q274.99078,756.3692,269.54535,746.55963Q264.27814,736.8505,254.00021,731.0852Q246.73569,727.01166,238.58997,726.1692Q230.6209,725.4253,223.15498,727.52704Q215.68616,729.62756,209.17548,734.5928Q202.76215,739.3819,198.68707,746.6458L198.09135,747.7095Q196.54501,749.6369,193.97783,750.06055Q191.58824,750.5831,189.46153,749.391Q186.98076,748.0,186.02591,745.1343Q185.24731,742.3682,186.63927,739.88806Q188.0293,737.4073,190.9733,736.72906Q193.73856,735.9507,196.21971,737.34186L212.71675,707.92944Q202.43999,702.1653,191.23006,702.63275Q180.02022,703.10016,170.6435,709.0212L157.17665,701.46735 Z"/>
</g>
<g style="fill:rgb(38,120,95); fill-opacity:1.0; stroke-linejoin: miter">
<path d="M-15.30135,861.30334C-21.69218,864.56915,-25.100607,866.35315,-25.11749,866.463C-25.056377,867.26337,12.019865,942.3499,57.39952,1033.4818L139.78677,1199.2148L473.88245,1033.9727L807.8975,868.5945L724.9809,701.455L642.0567,534.30896L308.57178,699.75336C152.6704,777.09344,20.856733,842.8463,-15.30135,861.30334 Z M124.31526,874.47565L341.33337,766.8052L558.3557,659.1432L124.31526,874.47565 Z M433.7842,949.44055C433.6753,949.4952,433.56876,949.5503,433.45535,949.6043C433.34882,949.65845,433.2434,949.71655,433.13486,949.7728 Z M224.48723,1074.7173L658.1242,859.58124L441.2451,967.1819L224.48723,1074.7173 Z"/>
</g>
<g style="fill:rgb(38,120,95); fill-opacity:1.0; stroke-linejoin: miter">
<path d="M-34.35645,859.14624C-34.2915,859.9449,2.787052,935.02563,48.16922,1026.1627L130.55754,1191.8964L464.64868,1026.6565L798.6666,861.2769L715.7492,694.1389L632.83014,526.99677L299.3454,692.43414C115.89032,783.4451,-34.2154,858.4111,-34.35645,859.14624 Z M554.4433,658.8495C565.2804,673.30664,579.0109,680.82196,596.9624,682.08386C603.50464,682.5037,609.84436,681.8544,614.8604,680.2087C619.0757,678.61285,623.2113,677.8977,623.94196,678.3636C626.8128,680.10876,673.7754,774.78107,672.8401,776.9147C672.2976,777.8424,669.1541,780.56824,665.8092,782.89624C657.77734,788.20844,648.0514,802.5318,645.4071,812.6632C642.90894,823.0737,643.20435,835.4266,646.31647,844.7152L648.8935,852.2637L432.01547,959.8706L215.26201,1067.4008L209.14886,1059.4368C205.82512,1055.0822,200.90549,1049.8646,198.23697,1047.8589C185.64746,1038.5995,164.36574,1034.3356,150.9317,1038.4934C147.79655,1039.5513,143.72415,1040.7395,141.91643,1041.1356L138.57668,1042.1263L114.036194,992.65155C86.57148,937.2926,88.15451,943.5088,99.1979,935.8629C107.08383,930.28394,113.98616,920.35645,117.76181,909.1567C121.803955,897.1492,121.456055,879.9945,117.01605,871.0322L115.09331,867.1573L332.1105,759.49054L549.1295,651.8304L554.4433,658.8495 Z"/>
</g>
<g style="fill:rgb(38,120,95); fill-opacity:1.0; stroke-linejoin: miter">
<path d="M326.68863,784.83966C313.1083,795.0697,301.43842,810.5304,295.45032,826.33C289.72675,841.6694,288.21866,854.4088,289.9056,871.2352C291.004,882.8602,291.86346,885.2665,299.49313,900.6455C306.922,915.62225,308.72168,918.2277,316.50558,925.5305C333.27448,941.53577,353.2754,950.6102,374.62817,952.3456C415.07245,955.60443,454.59845,930.8283,468.7338,893.4963C485.22644,849.82086,468.76056,802.173,429.04526,779.2204C397.25195,760.82104,355.59604,763.1632,326.68863,784.83966 Z"/>
</g>
<g style="fill:rgb(42,175,134); fill-opacity:1.0; stroke-linejoin: miter">
<path d="M340.19275,776.5398C367.63165,762.92096,401.92703,763.5313,429.04526,779.2204C468.76056,802.173,485.22644,849.82086,468.7338,893.4963C460.52832,915.1606,443.78067,932.6027,423.25607,942.77924C408.41656,950.1418,391.6006,953.7107,374.62817,952.3456C353.2754,950.6102,333.27448,941.53577,316.50558,925.5305C308.72168,918.2277,306.922,915.62225,299.49313,900.6455C291.86346,885.2665,291.004,882.8602,289.9056,871.2352C288.21866,854.4088,289.72675,841.6694,295.45032,826.33C301.43842,810.5304,313.1083,795.0697,326.68863,784.83966C330.93985,781.65283,335.46906,778.8884,340.19275,776.5398 Z M115.09331,867.1573L117.01605,871.0322C121.456055,879.9945,121.803955,897.1492,117.76181,909.1567C113.98616,920.35645,107.08383,930.28394,99.1979,935.8629C88.15451,943.5088,86.57148,937.2926,114.036194,992.65155L138.57668,1042.1263L141.91643,1041.1356C143.72415,1040.7395,147.79655,1039.5513,150.9317,1038.4934C164.36574,1034.3356,185.64746,1038.5995,198.23697,1047.8589C200.90549,1049.8646,205.82512,1055.0822,209.14886,1059.4368L215.26201,1067.4008L648.8935,852.2637L646.31647,844.7152C643.20435,835.4266,642.90894,823.0737,645.4071,812.6632C648.0514,802.5318,657.77734,788.20844,665.8092,782.89624C669.1541,780.56824,672.2976,777.8424,672.8401,776.9147C673.7754,774.78107,626.8128,680.10876,623.94196,678.3636C623.2113,677.8977,619.0757,678.61285,614.8604,680.2087C609.84436,681.8544,603.50464,682.5037,596.9624,682.08386C579.0109,680.82196,565.2804,673.30664,554.4433,658.8495L549.1295,651.8304 Z"/>
</g>
<g style="fill:rgb(18,91,69); fill-opacity:1.0; stroke-linejoin: miter">
<path d="M367.5702,780.617L367.7386,794.22784Q356.4211,799.0418,349.43655,809.28674Q342.4532,819.5309,342.61493,832.53253Q342.7187,840.8613,346.0614,848.33685Q349.40286,855.6092,354.95575,861.02637Q360.50815,866.443,368.0653,869.5998Q375.41858,872.75916,383.74753,872.65546L384.96686,872.6416Q387.4096,873.0165,389.05737,874.8238Q390.70474,876.63245,390.73807,879.2726Q390.77252,882.11707,388.7658,884.1727Q386.76022,886.2301,383.91617,886.26544Q381.07263,886.3009,379.0156,884.2941Q376.95856,882.28827,376.92386,879.44446L343.20285,879.8641Q343.2834,886.3636,345.38858,892.2307Q347.2875,897.89557,350.80307,902.93085Q354.11478,907.76544,358.835,911.5674Q363.55145,915.1656,369.26675,917.3303L369.45972,932.76825L403.58688,932.34424L403.37238,915.0765Q413.05695,909.67365,418.8295,900.05304Q424.60403,890.6353,424.45837,878.85315Q424.35516,870.5251,421.01096,863.0493Q417.6705,855.7764,412.1171,850.3599Q406.56485,844.9436,399.00726,841.7866Q391.65344,838.6279,383.32547,838.73035L382.1062,838.7472Q379.6645,838.3703,378.01382,836.35944Q376.36542,834.55054,376.3358,832.1134Q376.30048,829.27014,378.3042,827.0096Q380.31088,824.9529,383.1549,824.9177Q385.9974,824.88275,388.05728,827.0922Q390.11337,829.0977,390.14926,831.9422L423.86996,831.52344Q423.7225,819.7409,417.7137,810.26666Q411.7041,800.7924,401.88794,795.6316L401.69604,780.1928 Z"/>
</g>
<g style="fill:rgb(42,175,134); fill-opacity:1.0; stroke-linejoin: miter">
<path d="M364.7323,782.35913L364.90118,795.9687Q353.58325,800.78296,346.6002,811.0277Q339.61685,821.27325,339.77805,834.27405Q339.8818,842.6031,343.2251,850.0786Q346.56647,857.351,352.11838,862.7669Q357.6713,868.1846,365.22845,871.3413Q372.5818,874.50055,380.91022,874.39624L382.12955,874.3822Q384.5717,874.758,386.2201,876.5651Q387.86743,878.3733,387.90137,881.0143Q387.93564,883.858,385.92902,885.91504Q383.92288,887.9707,381.07938,888.0069Q378.23532,888.0413,376.17926,886.03656Q374.12216,884.0298,374.0868,881.1865L340.36652,881.6057Q340.4466,888.1059,342.5512,893.97076Q344.44968,899.63684,347.96674,904.6727Q351.27698,909.5069,355.99768,913.3089Q360.7146,916.9071,366.43088,919.07135L366.62238,934.509L400.7501,934.0868L400.5355,916.81805Q410.21857,911.4155,415.99268,901.79456Q421.76678,892.37775,421.6206,880.5952Q421.51788,872.26666,418.17404,864.7909Q414.83273,857.5183,409.2792,852.1011Q403.7275,846.685,396.1704,843.52826Q388.81763,840.36975,380.48773,840.4733L379.2694,840.48883Q376.82758,840.1119,375.17694,838.1011Q373.52905,836.2922,373.49893,833.855Q373.46405,831.0119,375.4674,828.7511Q377.4741,826.6944,380.3175,826.65924Q383.1615,826.62396,385.2195,828.83295Q387.27658,830.8394,387.312,833.68365L421.03366,833.26514Q420.8866,821.482,414.87735,812.0076Q408.8679,802.5342,399.05115,797.3733L398.85974,781.93524 Z"/>
</g>
<g style="fill:rgb(38,120,95); fill-opacity:1.0; stroke-linejoin: miter">
<path d="M40.850597,835.4558C33.6766,835.6415,29.832516,835.77856,29.769596,835.8706C29.47881,836.6191,30.496418,920.3556,32.073505,1022.1479L34.81425,1207.2096L407.50937,1202.4402L780.1893,1197.5149L777.578,1010.9552L774.9632,824.3903L402.73306,829.6029C228.7192,832.03815,81.43543,834.4231,40.850597,835.4558 Z M161.09206,907.62744L403.3264,904.2282L645.56323,900.83997L161.09206,907.62744 Z M407.8479,1108.881C407.72507,1108.8827,407.60608,1108.8868,407.48032,1108.8862C407.3618,1108.8887,407.24063,1108.8956,407.11737,1108.8994 Z M164.9713,1131.494L648.99365,1124.7094L406.91556,1128.1056L164.9713,1131.494 Z"/>
</g>
<g style="fill:rgb(38,120,95); fill-opacity:1.0; stroke-linejoin: miter">
<path d="M24.59576,825.281C24.309818,826.02985,25.330788,909.7618,26.90842,1011.5598L29.650188,1196.6217L402.34177,1191.8534L775.02454,1186.9282L772.40967,1000.3705L769.79913,813.8107L397.57193,819.01733C192.80179,821.88434,25.041073,824.67944,24.59576,825.281 Z M642.1609,898.8846C645.69135,916.60516,654.82983,929.3133,670.47656,938.20233C676.1975,941.4073,682.1951,943.5583,687.4299,944.2416C691.9213,944.6215,695.9601,945.7622,696.41724,946.49774C698.25433,949.31165,699.72894,1054.9819,697.9646,1056.5018C697.074,1057.1049,693.0622,1058.2056,689.03937,1058.8601C679.5014,1060.1832,664.5421,1068.9023,657.7839,1076.8986C651.0354,1085.2101,645.9676,1096.4811,644.76306,1106.2014L643.82764,1114.122L401.7472,1117.5255L159.81114,1120.9108L157.73625,1111.0883C156.62064,1105.726,154.43442,1098.8948,152.89352,1095.9331C145.53699,1082.1451,128.18323,1069.1096,114.269775,1067.0575C110.98685,1066.6588,106.80081,1065.9724,104.99808,1065.5479L101.558464,1064.9995L100.78825,1009.7775C99.92136,947.98755,98.665245,954.2771,111.92699,952.1495C121.450424,950.5235,131.96239,944.54956,140.20583,936.07916C149.03587,926.99335,156.13068,911.3705,155.99484,901.37036L155.93434,897.0443L398.16776,893.6481L640.39935,890.2603L642.1609,898.8846 Z"/>
</g>
<g style="fill:rgb(38,120,95); fill-opacity:1.0; stroke-linejoin: miter">
<path d="M382.33032,914.1708C365.66373,917.53375,348.46243,926.4379,336.2392,938.10376C324.45258,949.4671,317.59073,960.30774,311.8455,976.21185C307.81708,987.17206,307.55435,989.714,307.79355,1006.8796C308.02664,1023.5953,308.52383,1026.7217,312.3911,1036.671C320.60513,1058.3474,334.72656,1075.17,353.23724,1085.9558C388.30756,1106.3596,434.6581,1101.0819,463.5263,1073.5139C497.2638,1041.243,502.98798,991.1561,477.07855,953.3031C456.3464,922.97833,417.76324,907.1025,382.33032,914.1708 Z"/>
</g>
<g style="fill:rgb(42,175,134); fill-opacity:1.0; stroke-linejoin: miter">
<path d="M398.09494,912.5148C428.72534,912.08185,459.3928,927.4425,477.07855,953.3031C502.98798,991.1561,497.2638,1041.243,463.5263,1073.5139C446.772,1089.5111,424.13342,1098.0118,401.2285,1098.3275C384.66324,1098.5585,367.95428,1094.5154,353.23724,1085.9558C334.72656,1075.17,320.60513,1058.3474,312.3911,1036.671C308.52383,1026.7217,308.02664,1023.5953,307.79355,1006.8796C307.55435,989.714,307.81708,987.17206,311.8455,976.21185C317.59073,960.30774,324.45258,949.4671,336.2392,938.10376C348.46243,926.4379,365.66373,917.53375,382.33032,914.1708C387.54077,913.1315,392.81906,912.5941,398.09494,912.5148 Z M155.93434,897.0443L155.99484,901.37036C156.13068,911.3705,149.03587,926.99335,140.20583,936.07916C131.96239,944.54956,121.450424,950.5235,111.92699,952.1495C98.665245,954.2771,99.92136,947.98755,100.78825,1009.7775L101.558464,1064.9995L104.99808,1065.5479C106.80081,1065.9724,110.98685,1066.6588,114.269775,1067.0575C128.18323,1069.1096,145.53699,1082.1451,152.89352,1095.9331C154.43442,1098.8948,156.62064,1105.726,157.73625,1111.0883L159.81114,1120.9108L643.82764,1114.122L644.76306,1106.2014C645.9676,1096.4811,651.0354,1085.2101,657.7839,1076.8986C664.5421,1068.9023,679.5014,1060.1832,689.03937,1058.8601C693.0622,1058.2056,697.074,1057.1049,697.9646,1056.5018C699.72894,1054.9819,698.25433,949.31165,696.41724,946.49774C695.9601,945.7622,691.9213,944.6215,687.4299,944.2416C682.1951,943.5583,676.1975,941.4073,670.47656,938.20233C654.82983,929.3133,645.69135,916.60516,642.1609,898.8846L640.39935,890.2603 Z"/>
</g>
<g style="fill:rgb(18,91,69); fill-opacity:1.0; stroke-linejoin: miter">
<path d="M387.63907,930.3661L387.8093,943.9765Q376.4909,948.7896,369.507,959.03577Q362.52405,969.28143,362.68582,982.28217Q362.78955,990.6104,366.13187,998.0866Q369.47372,1005.35925,375.02707,1010.7755Q380.57953,1016.192,388.1362,1019.34894Q395.4894,1022.50824,403.81696,1022.40497L405.0363,1022.39087Q407.47855,1022.76605,409.12778,1024.5743Q410.77466,1026.3821,410.80765,1029.023Q410.84335,1031.8665,408.83667,1033.9225Q406.8306,1035.9799,403.9867,1036.0151Q401.14313,1036.0507,399.08603,1034.044Q397.02945,1032.0376,396.99402,1029.1942L363.27353,1029.6139Q363.35413,1036.1136,365.4584,1041.9785Q367.3574,1047.6447,370.8735,1052.6802Q374.18558,1057.5148,378.90485,1061.3156Q383.62283,1064.9143,389.33813,1067.0786L389.5305,1082.5172L423.65726,1082.0944L423.44226,1064.8257Q433.1279,1059.423,438.90018,1049.8033Q444.67477,1040.3856,444.52905,1028.6033Q444.42487,1020.27496,441.082,1012.79944Q437.7396,1005.5266,432.18805,1000.1092Q426.63422,994.6926,419.07907,991.53687Q411.72433,988.3771,403.396,988.48096L402.17722,988.4963Q399.7349,988.1202,398.0842,986.1093Q396.43683,984.30054,396.4067,981.8628Q396.37128,979.0193,398.37418,976.7593Q400.38126,974.7013,403.2243,974.6665Q406.06876,974.63055,408.1281,976.84076Q410.1843,978.84644,410.22006,981.69135L443.94067,981.27344Q443.79456,969.49005,437.7848,960.0155Q431.77502,950.54144,421.95874,945.3809L421.76675,929.9426 Z"/>
</g>
<g style="fill:rgb(42,175,134); fill-opacity:1.0; stroke-linejoin: miter">
<path d="M384.8032,932.10785L384.97202,945.7179Q373.65387,950.5318,366.67017,960.7774Q359.6873,971.0225,359.84894,984.02325Q359.9527,992.352,363.29495,999.82806Q366.63684,1007.1006,372.1898,1012.51685Q377.74316,1017.93353,385.29883,1021.09064Q392.6526,1024.2498,400.98013,1024.1469L402.19998,1024.1328Q404.64175,1024.5077,406.29047,1026.3152Q407.93784,1028.1235,407.97037,1030.7642Q408.00607,1033.6084,405.9994,1035.665Q403.99332,1037.7213,401.14978,1037.757Q398.30566,1037.7919,396.24957,1035.7858Q394.19254,1033.7797,394.1577,1030.935L360.43677,1031.3555Q360.51733,1037.8551,362.622,1043.7206Q364.52048,1049.3861,368.0376,1054.4218Q371.34784,1059.2561,376.06854,1063.058Q380.78638,1066.6558,386.5012,1068.8198L386.69318,1084.2587L420.8204,1083.8353L420.60593,1066.568Q430.29114,1061.1654,436.0642,1051.5448Q441.8388,1042.1274,441.69116,1030.3448Q441.5889,1022.01685,438.24518,1014.5404Q434.90372,1007.26715,429.3508,1001.85144Q423.7979,996.4344,416.24167,993.27826Q408.8875,990.118,400.55905,990.2216L399.34042,990.2389Q396.89706,989.86115,395.24783,987.8508Q393.60004,986.0422,393.56976,983.60425Q393.53397,980.7598,395.53723,978.5007Q397.543,976.44385,400.38748,976.4075Q403.23248,976.37244,405.29086,978.5821Q407.34744,980.58795,407.38287,983.4327L441.10324,983.0145Q440.95764,971.2321,434.94836,961.75726Q428.93808,952.283,419.12277,947.12256L418.92947,931.6835 Z"/>
</g>
<g style="fill:rgb(253,217,8); fill-opacity:1.0; stroke-linejoin: miter">
<path d="M-227.29443,1054.9265L-226.29263,1030.6674Q-216.60406,957.17847,-161.53752,911.8445Q-106.081825,866.5309,-29.180107,872.8338Q44.30952,882.52167,89.64468,937.58636Q104.17354,955.3896,113.83183,976.5801L122.05138,998.40704Q128.9427,1020.97675,129.65112,1045.6884Q129.69922,1121.5802,80.64068,1173.2444Q31.581608,1224.9061,-44.207706,1228.783Q-120.09835,1228.8291,-171.75978,1179.773Q-223.42133,1130.7167,-227.29443,1054.9265 Z"/>
</g>
<g style="fill:rgb(238,170,1); fill-opacity:1.0; stroke-linejoin: miter">
<path d="M-199.36954,1053.7533L-198.52069,1033.2911Q-190.34734,971.30304,-143.90184,933.0625Q-97.12395,894.8437,-32.25713,900.15924Q29.727802,908.33136,67.96897,954.7806Q80.222336,969.79846,88.36764,987.66895L95.30307,1006.08105Q101.11522,1025.1161,101.71519,1045.9633Q101.75422,1109.9769,60.373894,1153.5535Q18.995024,1197.1329,-44.9368,1200.402Q-108.947586,1200.4408,-152.52344,1159.0627Q-196.0989,1117.6821,-199.36954,1053.7533 Z"/>
</g>
<g style="fill:rgb(255,183,13); fill-opacity:1.0; stroke-linejoin: miter">
<path d="M-195.69142,1053.6006L-194.8634,1033.638Q-186.88896,973.166,-141.57843,935.8593Q-95.94328,898.5739,-32.662487,903.76Q27.808155,911.73267,65.11436,957.0467Q77.068596,971.6978,85.01515,989.1308L91.78072,1007.0943Q97.451256,1025.6637,98.035324,1046.0001Q98.07412,1108.4506,57.704628,1150.9619Q17.33673,1193.476,-45.032,1196.6661Q-107.47891,1196.7032,-149.98912,1156.3357Q-192.49982,1115.967,-195.69142,1053.6006 Z"/>
</g>
<g style="fill:rgb(238,170,1); fill-opacity:1.0; stroke-linejoin: miter">
<path d="M-64.62428,950.1661L-64.43928,965.30597Q-77.030075,970.65924,-84.80097,982.0547Q-92.57189,993.4487,-92.39505,1007.9117Q-92.28189,1017.1771,-88.56374,1025.4938Q-84.84952,1033.5847,-78.674065,1039.6117Q-72.4978,1045.6387,-64.09293,1049.152Q-55.914062,1052.6681,-46.648968,1052.5554L-45.29267,1052.5392Q-42.57627,1052.9581,-40.744022,1054.9692Q-38.911205,1056.9814,-38.874615,1059.9187Q-38.836464,1063.0824,-41.0695,1065.3685Q-43.300808,1067.6572,-46.464382,1067.695Q-49.62816,1067.7343,-51.915703,1065.5018Q-54.20183,1063.2695,-54.241756,1060.1068L-91.75135,1060.5646Q-91.66299,1067.795,-89.32346,1074.3207Q-87.21233,1080.6235,-83.302246,1086.2261Q-79.62084,1091.6058,-74.37139,1095.836Q-69.12359,1099.8398,-62.766693,1102.2482L-62.556095,1119.4219L-24.594145,1118.9606L-24.828075,1099.7506Q-14.053654,1093.7428,-7.630126,1083.0422Q-1.2038649,1072.5669,-1.3636397,1059.4607Q-1.4764212,1050.1959,-5.194082,1041.8778Q-8.908951,1033.7875,-15.085327,1027.7617Q-21.260801,1021.7336,-29.666016,1018.22064Q-37.84482,1014.7045,-47.10908,1014.817L-48.46598,1014.83514Q-51.1829,1014.415,-53.01792,1012.1771Q-54.85036,1010.1654,-54.882664,1007.4534Q-54.921906,1004.2892,-52.693092,1001.77545Q-50.460175,999.48926,-47.297573,999.4506Q-44.134243,999.41284,-41.843784,1001.87006Q-39.556717,1004.10205,-39.51789,1007.26654L-2.006893,1006.80963Q-2.1663797,993.7006,-8.850587,983.1616Q-15.533377,972.6194,-26.450901,966.87634L-26.660316,949.70233 Z"/>
</g>
<g style="fill:rgb(253,217,8); fill-opacity:1.0; stroke-linejoin: miter">
<path d="M-67.78043,952.1029L-67.595764,967.2435Q-80.18579,972.5958,-87.9569,983.9901Q-95.72767,995.38574,-95.551895,1009.84894Q-95.438515,1019.11346,-91.72078,1027.431Q-88.005424,1035.5215,-81.82994,1041.5475Q-75.65453,1047.5752,-67.24923,1051.0874Q-59.071095,1054.6049,-49.805283,1054.4924L-48.44964,1054.4764Q-45.732063,1054.8943,-43.8994,1056.9053Q-42.06754,1058.9178,-42.03097,1061.854Q-41.993095,1065.0186,-44.224846,1067.3062Q-46.457092,1069.5929,-49.62059,1069.6315Q-52.784424,1069.6704,-55.071014,1067.4388Q-57.358555,1065.2069,-57.39704,1062.042L-94.90853,1062.5024Q-94.81983,1069.7319,-92.47986,1076.2571Q-90.368904,1082.5598,-86.4584,1088.1626Q-82.776695,1093.5417,-77.52697,1097.7717Q-72.27987,1101.7758,-65.92242,1104.1849L-65.712,1121.3582L-27.74983,1120.8965L-27.983973,1101.6876Q-17.209799,1095.6794,-10.786511,1084.9788Q-4.359839,1074.5032,-4.5204625,1061.3966Q-4.632258,1052.133,-8.351275,1043.8157Q-12.0648,1035.724,-18.241308,1029.6976Q-24.417112,1023.67065,-32.822643,1020.15704Q-41.001392,1016.64075,-50.26633,1016.7548L-51.622864,1016.7713Q-54.339592,1016.35114,-56.17419,1014.11346Q-58.007057,1012.10156,-58.040062,1009.39014Q-58.07868,1006.227,-55.849564,1003.71326Q-53.616737,1001.4257,-50.45336,1001.38696Q-47.290817,1001.349,-45.000813,1003.80725Q-42.713356,1006.0381,-42.67404,1009.2027L-5.162971,1008.7465Q-5.322741,995.6382,-12.005672,985.0976Q-18.688623,974.55615,-29.607393,968.8135L-29.817131,951.63873 Z"/>
</g>
<g>
<g style="fill:rgb(0,0,0); fill-opacity:1.0; stroke-linejoin: miter">
<path d="M93.9814,664.1631C94.19458,664.3664,96.22219,664.94354,98.45789,665.516C100.692,666.01904,103.211914,666.8624,104.05799,667.39795C104.83277,667.8659,106.99919,668.44,108.74085,668.6767C110.551895,668.912,112.22922,669.3586,112.44565,669.7006C112.662094,670.04297,113.36267,670.30426,114.12601,670.28625C114.82013,670.26996,116.86401,671.5414,118.77728,673.1631C122.03873,676.00305,122.11293,676.2097,122.057526,679.7525C122.03377,681.69794,121.66968,683.9287,121.26964,684.6325C120.269165,686.39233,121.071884,688.04004,123.31419,688.89C125.62448,689.6692,132.03519,693.54614,132.04826,694.10144C132.0548,694.3791,133.4642,695.2488,135.22235,696.17944C136.98044,697.11053,138.39145,698.0494,138.39798,698.3271C138.40616,698.67426,138.96613,698.86945,139.66023,698.85315C141.53441,698.8089,144.7541,702.83026,144.81291,705.329C144.8276,705.9536,145.4834,707.2577,146.20032,708.213C146.98494,709.09735,148.01561,711.5732,148.55202,713.7136C149.69926,718.2005,150.97318,719.2122,156.75693,720.0484C158.98624,720.3434,161.7738,720.76385,162.95868,720.94434C164.9796,721.2438,165.2525,721.02924,166.98361,717.86346C168.05162,716.0326,169.05342,714.3422,169.32634,714.1275C169.599,713.9127,170.60243,712.2919,171.59949,710.3932C172.59814,708.5641,173.74373,707.0788,174.09094,707.0706C174.64604,707.05756,176.18457,707.5074,182.41586,709.6524C183.88472,710.10394,190.9775,710.4926,200.49435,710.6159C216.33252,710.7987,228.71165,711.54913,233.18314,712.69385C236.18582,713.3871,242.22427,713.24493,246.23193,712.3867C250.93042,711.3733,254.08154,712.47986,258.13406,716.4818C264.96237,723.33527,267.82208,732.7128,265.59036,741.1683C265.08264,743.19415,264.12808,746.89734,263.5621,749.41064C262.30466,754.9961,260.7664,760.4491,259.97745,762.3427C259.71786,763.1129,258.80157,765.4954,258.08725,767.5957C255.7435,774.2481,248.3855,789.144,243.37442,797.52606C241.97229,799.92017,240.8447,802.169,240.85614,802.65497C240.86594,803.0713,240.5271,803.4266,240.18005,803.43475C239.76352,803.4446,239.49252,803.7288,239.50067,804.07587C239.52191,804.9782,227.67934,824.07697,225.5799,826.3487C225.17648,826.91345,224.77324,827.47876,224.77814,827.6869C224.7961,828.45044,220.4928,834.4547,219.93745,834.4678C219.65988,834.4743,219.39212,834.89716,219.4052,835.4525C219.41663,835.9383,218.95033,836.78253,218.40643,837.2817C217.38649,838.2083,217.07315,842.59094,218.05457,842.9845C218.33376,843.0475,220.18903,845.15643,222.122,847.6112C224.12238,849.99457,226.05544,852.4493,226.5559,853.06244C226.98544,853.608,229.2039,856.4032,231.35332,859.1996C233.57181,861.9948,235.57903,864.65594,235.86473,864.9965C240.36826,870.4462,242.23813,873.1802,242.97629,875.03754C243.2009,875.7272,243.69977,876.2709,244.047,876.2627C244.3938,876.2546,244.68292,876.73395,244.69601,877.28925C244.70908,877.8445,244.99817,878.3235,245.34515,878.31537C245.69229,878.3072,246.2638,878.9883,246.56119,879.81476C246.85999,880.7104,247.22653,881.53534,247.50925,881.73706C248.0758,882.20966,250.6774,886.52374,253.43744,891.66724C254.6019,893.93146,256.2685,896.8785,257.13248,898.1774C258.86514,900.9842,263.07706,908.80194,269.26263,920.8093C274.28036,930.4137,278.48083,937.7457,279.9081,939.37885C280.47656,939.9212,280.916,940.8829,280.9307,941.5077C280.94376,942.0628,281.6688,943.3652,282.59402,944.3159C283.45145,945.3372,284.816,947.2497,285.61365,948.68933C286.342,950.13055,287.71146,952.25116,288.64322,953.47925C289.5732,954.638,290.29828,955.94025,290.30643,956.2876C290.31625,956.7039,290.60373,957.1139,290.95407,957.2445C291.30267,957.3056,292.16498,958.53546,292.89008,959.83777C295.06235,963.6063,302.9053,975.22784,308.57657,983.08075C311.9499,987.72363,314.58817,990.64764,316.204,991.4432C319.64752,993.16766,321.57715,995.4832,322.8469,999.27277C323.44955,1001.27264,324.9641,1003.66766,326.59976,1005.29596C329.87103,1008.5524,333.5725,1015.3404,334.94775,1020.65564C335.55997,1023.0719,336.04282,1028.8245,336.1498,1036.3224L336.4307,1048.2609L338.11435,1048.985C339.16702,1049.4464,341.87714,1049.5212,345.47974,1049.1588C350.46735,1048.6248,351.5811,1048.7374,354.1094,1049.9279C358.4649,1052.0477,364.50003,1057.6696,365.9683,1061.0378C368.09384,1065.78,368.16672,1065.917,372.1704,1067.837C376.94733,1070.155,379.37817,1070.1671,380.8512,1067.841C382.25497,1065.5161,383.90106,1064.6442,389.00784,1063.274C398.04977,1060.9083,402.2063,1060.4633,407.15546,1061.2496C409.73328,1061.6055,414.39993,1062.19,417.46375,1062.5345C420.52573,1062.8097,423.94144,1063.3545,425.06018,1063.6754C426.18033,1064.0656,429.37988,1064.2682,432.1561,1064.2029C436.80655,1064.0935,440.2254,1064.7771,444.64896,1066.8257C446.61176,1067.6127,454.8248,1068.3915,467.6138,1068.8545C473.31375,1069.0676,480.1996,1069.5306,482.91647,1069.8834C485.56213,1070.1685,491.4086,1070.7253,495.79132,1071.039C500.17377,1071.3523,505.95093,1071.911,508.66595,1072.1942C511.3133,1072.5487,517.57324,1072.9569,522.5773,1073.117C529.6648,1073.2971,532.0346,1073.6581,533.58624,1074.6635C536.12244,1076.2009,544.86786,1075.9952,548.4378,1074.2446C550.63275,1073.0818,550.84094,1073.0769,553.52094,1074.8192C555.5649,1076.0908,558.4319,1076.926,563.86676,1077.701C569.0937,1078.4806,572.65985,1079.5079,575.68024,1080.9646C578.77167,1082.4891,581.49664,1083.189,585.3949,1083.5833C588.3877,1083.8602,593.9649,1084.7705,597.8729,1085.5815C601.9216,1086.4583,608.0507,1087.2172,612.49756,1087.3207C616.6671,1087.4307,623.2771,1087.9696,627.10767,1088.435C634.8398,1089.4337,650.834,1093.2935,654.6955,1095.0778C657.43365,1096.3331,681.28314,1103.4805,687.916,1104.9908C694.8978,1106.5626,708.76086,1108.389,713.1335,1108.2863C717.5755,1108.1816,724.19385,1109.0679,727.20624,1110.1774C728.1862,1110.5016,730.4169,1110.8657,732.1555,1110.9635C733.89386,1111.062,737.4434,1111.3948,740.16187,1111.8173C742.8092,1112.1715,747.1983,1112.7627,749.9134,1113.0461C752.56067,1113.4004,755.6987,1113.9514,756.8868,1114.2708C758.0072,1114.6614,762.75146,1115.5912,767.35364,1116.3857C771.95575,1117.1802,777.88477,1118.2909,780.5355,1118.7839C785.3508,1119.7816,789.7136,1119.2622,792.935,1117.4502C793.5515,1117.0886,796.73126,1116.4581,799.8464,1116.0376C805.5248,1115.3481,810.3222,1115.583,816.88086,1116.8867C818.6952,1117.2607,824.81793,1117.7418,830.58856,1118.0227C836.29175,1118.3744,844.3577,1118.8097,848.4593,1118.9911C856.03955,1119.4376,862.3441,1118.8032,870.84045,1116.8671C876.43494,1115.5547,885.0472,1112.6436,885.9994,1111.788C886.3383,1111.4327,887.16455,1111.1354,887.85864,1111.119C889.38574,1111.0831,897.51215,1108.1835,898.3256,1107.3308C898.73376,1106.9741,899.49066,1106.6785,900.11536,1106.6637C901.15656,1106.6393,902.79297,1105.3505,909.5867,1098.9406C910.5372,1098.0155,916.7096,1091.7589,923.2888,1085.0758C929.8661,1078.3237,936.4467,1071.7103,937.8733,1070.357C939.2983,1068.9347,942.2028,1065.4634,944.21967,1062.6381C946.23645,1059.8129,948.7312,1056.6292,949.67834,1055.5652C950.8288,1054.2881,951.6194,1052.4639,951.8497,1050.4446C952.0865,1048.7029,952.8458,1045.5594,953.562,1043.5289C954.34576,1041.4266,955.17633,1038.3517,955.48254,1036.6084C956.0998,1033.3297,955.52814,1026.7458,954.3736,1024.8981C953.65,1023.66516,951.7988,1018.7778,950.67596,1015.3319C946.62256,1002.4409,947.74347,999.91425,957.85596,998.7734C962.63525,998.24414,962.3527,998.0424,967.4875,1003.7551C970.9089,1007.49426,973.2859,1011.119,975.9864,1016.68066C979.2698,1023.40936,979.7932,1024.9943,981.32697,1031.1388C982.088,1033.9684,982.93304,1037.4208,983.31104,1038.7312C986.0468,1048.7366,986.82904,1052.4684,988.43036,1064.4451C989.0061,1068.2511,987.7626,1083.2811,986.5003,1088.6581C986.18427,1089.9852,985.7736,1093.1892,985.62573,1095.7623C985.38336,1100.2128,985.4593,1100.4886,986.778,1100.4575C988.30505,1100.4216,1001.60034,1086.9832,1005.43396,1081.6846C1007.3169,1079.0707,1007.44275,1078.5121,1007.30054,1072.4734C1007.0979,1063.8666,1007.43677,1063.5116,1015.8352,1063.3141L1022.08215,1063.1716L1024.0826,1065.5503C1025.8684,1067.661,1027.1072,1070.1321,1029.9744,1076.8705C1031.8884,1081.4785,1034.4548,1093.1547,1036.2709,1105.4038C1037.518,1114.125,1038.2235,1144.1094,1037.3541,1151.4216C1034.9061,1171.3411,1029.041,1184.7433,1022.1245,1185.9478C1020.81067,1186.1869,1018.1892,1186.9434,1016.40137,1187.6798L1013.0281,1188.9398L1013.6902,1196.4246C1014.3428,1203.4932,1014.2865,1204.0496,1012.70557,1207.698C1011.7118,1209.7357,1010.5132,1211.9167,1009.8999,1212.4172C1009.35596,1212.9163,1008.8865,1213.6213,1008.89636,1214.038C1008.9044,1214.385,1007.4861,1216.0852,1005.7886,1217.7224L1002.66583,1220.7825L984.547,1221.0693L966.3572,1221.2892L959.6933,1218.4604C956.04474,1216.8794,951.7602,1214.8275,950.21014,1213.8912C948.5215,1212.9589,946.0033,1212.1843,943.9178,1212.0953C940.64886,1211.8933,938.2745,1211.3247,934.8408,1210.0164C934.0691,1209.6875,928.4372,1209.4033,922.326,1209.4083C915.9371,1209.4199,910.65234,1209.1277,909.80786,1208.6611C907.9093,1207.6641,895.6609,1206.5638,884.89594,1206.5393L876.0745,1206.4691L876.1856,1211.1886C876.2461,1213.757,876.6732,1217.1494,877.0561,1218.6683C878.2778,1223.3618,879.18896,1238.4802,878.3601,1241.6246C877.3464,1245.7458,875.6936,1246.3406,864.7172,1246.1821C859.85364,1246.0883,841.86554,1246.0256,824.71185,1246.0123C807.6291,1246.0671,793.3873,1245.8468,792.966,1245.6482C792.614,1245.4481,787.46655,1245.0836,781.69745,1244.8718C775.8572,1244.5923,768.2091,1244.2168,764.8002,1243.95C756.45,1243.2434,742.54047,1242.3905,731.07007,1241.8964C710.56036,1240.9204,703.8145,1240.5233,701.6466,1239.8804C698.85065,1239.1128,692.29846,1238.0862,686.87164,1237.6587C684.5747,1237.4349,682.344,1237.0707,681.9902,1236.8013C681.56744,1236.5336,678.71,1236.1146,675.5107,1235.912C672.38086,1235.7079,669.5931,1235.2871,669.3765,1234.9454C669.1602,1234.6027,667.97375,1234.3534,666.7939,1234.3811C665.5445,1234.4105,661.7107,1233.8063,658.2917,1233.1224C654.8032,1232.4404,647.4942,1231.7101,641.93317,1231.4934C633.7299,1231.131,631.0826,1230.7765,627.649,1229.4681C621.0609,1226.9149,618.41187,1226.4917,602.3459,1225.4808C594.0686,1224.9117,584.2574,1224.1008,580.63513,1223.6307C577.01276,1223.1604,568.5254,1222.5265,561.8525,1222.2668C554.763,1222.0171,545.9237,1221.183,540.62415,1220.2664C535.60364,1219.4122,529.12616,1218.5923,526.1365,1218.4547C523.21643,1218.3151,520.7774,1217.9557,520.7709,1217.6781C520.76276,1217.3309,518.6723,1217.033,516.0299,1216.8866C513.457,1216.7389,508.9323,1216.2903,506.0056,1215.8724C500.8498,1215.1608,500.5028,1215.169,495.20093,1217.0991C492.17133,1218.2124,488.3107,1219.414,486.65292,1219.8003C485.06647,1220.2545,482.44382,1220.9412,480.9266,1221.3937C478.16812,1222.2227,475.40656,1222.9126,468.22244,1224.5398C457.51474,1226.945,411.03418,1229.0111,395.65598,1227.7063C388.3499,1227.1141,386.8165,1226.8726,378.92102,1224.8362C368.43942,1222.0966,367.5371,1222.1178,360.51132,1224.5746L355.4161,1226.4305L323.76422,1227.106C292.59848,1227.77,278.98297,1227.6046,273.2605,1226.4198C271.65588,1226.1104,267.94464,1224.8086,264.99527,1223.4196C261.97778,1222.1017,259.1754,1221.0568,258.68964,1221.0681C257.7179,1221.0912,246.27356,1209.9015,246.25067,1208.9297C246.23108,1208.0968,238.94485,1196.5319,236.51323,1193.5334C235.58313,1192.3748,233.62741,1188.9485,232.16905,1185.9963C228.37856,1178.3772,226.44081,1175.7142,220.6121,1170.0177C216.98909,1166.5613,215.01115,1165.1494,213.83131,1165.1772C212.235,1165.2148,212.03497,1165.5669,211.6952,1168.8386C210.48778,1179.4926,209.85239,1182.0079,208.07364,1183.1608C206.97957,1183.8809,205.66583,1184.12,204.61806,1183.8672C203.012,1183.4883,200.07649,1179.7378,198.17381,1175.6158C195.54118,1169.9829,190.11415,1163.6521,187.89314,1163.7045C187.06035,1163.724,183.83075,1165.189,180.60779,1166.9315L174.84775,1170.0535L169.95488,1180.516C167.24318,1186.2744,162.41646,1196.5966,159.17717,1203.5481C155.93613,1210.4302,152.41931,1217.3883,151.34808,1219.0801C147.25957,1225.3572,137.84288,1232.4541,132.2421,1233.4888C130.51334,1233.8074,128.97984,1233.5654,127.29289,1232.7023C124.69202,1231.3749,118.771866,1227.6943,118.20369,1227.1522C117.98889,1226.8795,116.57628,1225.8707,115.02321,1224.7968C113.469986,1223.7219,111.84416,1222.5095,111.48886,1222.1709C108.64401,1219.3212,96.91079,1213.5555,85.84303,1209.5101C79.60848,1207.2262,69.84968,1202.7334,68.99564,1201.851C68.78253,1201.6476,67.37629,1200.9169,65.83311,1200.2583C64.28982,1199.6005,62.531654,1198.6697,61.966476,1198.2661C61.401558,1197.8625,58.382736,1196.4756,55.299294,1195.2981C48.009026,1192.4136,43.009205,1189.4761,42.97816,1188.1571C42.963467,1187.5326,43.269573,1185.7888,43.648617,1184.1829C44.029163,1182.6459,44.720684,1179.5743,45.22703,1177.4786C47.065098,1170.0048,51.5373,1150.5237,52.726997,1145.0096C53.09774,1143.0563,53.60549,1141.0305,53.870094,1140.4686C54.065117,1139.9083,54.498817,1137.676,54.79689,1135.5857C55.52852,1131.2627,57.716026,1120.9331,58.68354,1117.7853C59.00283,1116.5969,59.434883,1114.295,59.602203,1112.555C59.839035,1110.8132,60.208046,1108.7909,60.46776,1108.021C61.253304,1105.9883,62.505806,1100.1947,63.10511,1096.1528C65.806984,1078.172,66.11993,1076.7062,69.02345,1070.2488C71.92884,1063.8608,72.6833,1060.5095,74.99003,1043.4408C75.34777,1040.9324,75.82943,1037.7959,76.145485,1036.469C76.461464,1035.1418,77.12539,1030.8901,77.72961,1027.0564C78.26439,1023.22437,79.007576,1019.387,79.33318,1018.47675C80.11556,1016.30536,79.82225,1006.79816,78.95359,1005.29083C78.5918,1004.6742,77.27228,1001.7191,76.02355,998.8318C74.77506,995.9443,72.81293,992.2405,71.73258,990.59894C70.582794,988.95953,67.554955,984.2387,64.88874,980.13477C62.221123,975.9616,59.769653,972.1301,59.340332,971.5847C58.980125,971.0375,58.47148,970.0773,58.180855,969.52875C57.95952,968.9782,56.50093,966.02637,54.969994,962.93726C53.371025,959.91925,52.122536,957.03174,52.11274,956.6155C52.102936,956.1989,51.6539,954.82074,51.06903,953.5845C50.484505,952.348,49.531532,950.2175,48.87259,948.7748C48.215157,947.4015,47.695072,945.9551,47.68527,945.5385C47.675465,945.12195,47.389744,944.7816,47.112072,944.78815C46.83428,944.7947,45.962383,943.1485,45.220974,941.15204C42.999695,935.3014,39.146343,927.9615,36.428738,924.6224C35.06758,922.84875,33.914577,921.0702,33.90151,920.515C33.88844,919.9597,33.1731,919.07385,32.257706,918.5397C29.789219,916.9311,27.231853,914.4913,25.93671,912.5773C24.856617,910.936,23.448858,910.1356,17.280333,907.71136C10.479243,904.95483,7.7298765,903.2139,3.0394263,898.6713C-1.9366281,893.7883,-4.1683917,890.438,-7.6960154,882.1874C-8.430903,880.4685,-9.664688,878.2057,-10.456089,877.0437C-12.824906,873.76605,-23.564455,854.1571,-25.4769,849.6189C-27.828588,844.1185,-31.678778,831.01416,-32.947823,824.3078C-33.342155,822.30316,-33.893337,819.5381,-34.202164,818.226C-34.441296,816.91205,-35.534645,814.7156,-36.60681,813.4213C-39.608612,809.81146,-40.269196,808.2992,-40.344337,805.10645C-40.393333,803.0243,-41.131493,801.1663,-42.86424,798.35974C-44.233624,796.23926,-46.047203,792.9486,-46.92434,791.0941C-47.802883,789.1703,-49.04495,786.56055,-49.771675,785.1886C-51.872726,781.488,-53.24361,773.395,-53.3833,764.5091C-53.495094,756.8034,-53.43561,756.3852,-51.309288,752.3074C-50.113922,749.98737,-48.784515,747.456,-48.386063,746.6827C-44.735184,739.51337,-37.739655,732.82074,-29.302177,728.3858C-23.88281,725.5497,-23.676168,725.47546,-18.044363,725.75946C-13.109859,725.92126,-11.724856,725.74976,-9.2539425,724.5111C-6.645794,723.1996,-5.122216,723.02496,2.1704578,723.0615C8.351084,723.0549,10.719131,723.34656,11.1518955,724.0308C11.583086,724.6457,12.420895,724.8341,13.59267,724.45953C14.559433,724.2283,17.47612,724.229,19.984718,724.5867C24.861137,725.23596,26.52055,724.919,23.648582,723.87537C22.316833,723.3513,22.731564,723.27203,25.78724,723.26965L29.607933,723.3186L30.55093,719.1296C31.62487,714.59033,33.010426,711.502,34.972633,709.3029C37.33985,706.6084,38.61783,698.9391,36.912743,697.31256C36.34443,696.77026,36.39097,695.79706,37.31357,693.692C38.370255,691.3754,38.912544,690.80707,40.50891,690.7695C41.55004,690.745,42.579666,690.23456,42.77482,689.67444C43.039307,689.1127,43.930195,688.6055,44.832394,688.5843C45.804237,688.5614,46.48854,688.12866,46.47547,687.57336C46.462402,687.01807,46.935097,686.4513,47.483925,686.1606C48.034264,685.9394,48.50534,685.3033,48.49227,684.748C48.46286,683.4986,50.970688,680.87006,52.965454,680.0594C53.79007,679.6926,54.598602,678.63184,54.851654,677.5843C55.228935,675.9085,57.518585,672.8685,58.08519,673.34125C58.156403,673.40894,59.76095,673.7185,61.57036,673.8843C64.56631,674.2998,64.91013,674.1528,64.88236,672.9729C64.83009,670.75195,66.54741,669.9476,72.228966,669.39703C75.20858,669.1188,77.973495,668.5674,78.45115,668.20905C78.85954,667.85223,80.99959,667.3157,83.07707,667.0585C85.499825,666.72394,86.94757,666.2731,86.93451,665.71783C86.92307,665.23206,87.39422,664.5959,88.01395,664.37286C89.32132,663.8561,93.4842,663.6886,93.9814,664.1631 Z M205.27739,763.3523C203.90067,763.87067,201.62825,764.68823,200.18202,765.20856C198.80693,765.79626,195.97108,766.27966,193.95818,766.327C192.01498,766.3728,189.24664,766.78534,187.86668,767.1649C185.3843,767.9178,185.31639,767.9889,185.46269,771.2493C185.622,775.0651,183.48564,778.7267,179.65453,781.17816C178.49239,781.9693,176.92378,783.1869,176.17674,783.899C175.42949,784.61096,173.58823,786.0432,172.08252,786.98145C170.57668,787.9196,169.20975,788.8547,169.00803,789.1374C168.8047,789.35034,167.37177,790.4258,165.73196,791.5756C162.5222,793.87335,160.84906,796.5519,160.91443,799.32806C160.96179,801.341,161.59785,801.8121,165.43501,802.5552C172.48274,803.9866,172.55215,803.9849,176.08955,800.8462C177.85646,799.2072,179.77042,797.9121,180.18692,797.9023C180.67274,797.89087,181.0133,797.6051,181.00513,797.2579C180.99696,796.9111,181.68118,796.47815,182.50768,796.18085C184.3024,795.72205,188.51915,791.942,188.49301,790.8314C188.48485,790.4845,189.4321,789.42053,190.59074,788.4904C194.61392,785.34,200.04074,779.8649,200.02115,779.03217C199.97377,777.0193,202.52318,773.209,206.52676,769.22577C212.4974,763.2517,212.02888,761.04034,205.27739,763.3523 Z"/>
</g>
</g>
<g style="fill:rgb(255,182,148); fill-opacity:1.0; stroke-linejoin: miter">
<path d="M121.005356,682.4454L117.03293,684.38477Q94.53635,694.64374,89.83811,707.2222Q88.43279,710.77655,88.1684,715.04846Q87.435776,716.8938,89.83113,729.2053Q90.16415,731.78894,94.71628,744.16406Q97.02547,750.579,105.587654,767.6308Q98.11378,757.8714,93.0631,759.41315Q90.618546,759.6431,87.11395,765.53815Q84.33697,771.3069,85.73184,776.1768Q86.286705,777.67126,87.41936,778.7399Q87.703354,779.48224,91.85477,781.18195Q96.25573,782.6979,107.4132,783.0433L123.757675,811.694L163.53328,827.16986L161.45517,803.86273Q177.4931,785.0092,182.68433,775.9319Q187.21274,768.0939,185.38458,764.00415Q185.33795,763.14886,182.91986,760.4126Q175.48547,754.5636,175.91797,754.0836Q175.46155,753.6116,174.79489,751.16907L174.38734,746.4997Q174.3075,746.0121,174.06445,745.83466Q172.29794,745.5601,169.54071,749.1994Q173.45886,747.1781,173.11984,744.62646Q172.3384,742.3342,165.99759,739.50256Q176.63896,728.33795,173.87732,725.6575Q173.91429,725.19977,171.20477,723.8289Q159.71594,720.3695,157.66325,718.2794Q156.87236,717.9339,154.41968,714.6693Q147.77716,702.0763,147.13017,701.7576Q146.7398,700.8676,142.78677,696.8923Q138.13441,692.1004,121.005356,682.4454"/>
</g>
<g style="fill:rgb(255,182,148); fill-opacity:1.0; stroke-linejoin: miter">
<path d="M148.60356,683.2009L148.60362,683.20105L148.6037,683.2012L148.60356,683.2009"/>
</g>
<g style="fill:rgb(255,255,255); fill-opacity:1.0; stroke-linejoin: miter">
<path d="M121.13922,808.80273L156.22398,813.6526L163.21649,797.9551L179.05765,809.3813Q231.74022,854.0318,266.91516,898.2495Q334.85992,987.7186,342.8068,1048.0593L207.33589,1109.2916Q202.32335,1018.4742,186.79546,967.93494Q173.59116,918.3112,121.13922,808.80273"/>
</g>
<g style="fill:rgb(255,255,255); fill-opacity:1.0; stroke-linejoin: miter">
<path d="M193.20126,859.9532L193.20132,859.9534L193.2014,859.9538L193.20126,859.9532"/>
</g>
<g style="fill:rgb(255,0,0); fill-opacity:1.0; stroke-linejoin: miter">
<path d="M155.05547,813.226L155.05547,813.22614L154.91992,829.59656Q164.02806,832.5714,173.13612,835.5464Q172.14357,825.2916,171.15094,815.037L155.05547,813.226"/>
</g>
<g style="fill:rgb(255,0,0); fill-opacity:1.0; stroke-linejoin: miter">
<path d="M166.73938,832.3349L285.8526,987.38934L301.29034,996.00104L297.35324,970.4941L170.35164,825.51184L166.73938,832.3349"/>
</g>
<g style="fill:rgb(255,255,255); fill-opacity:1.0; stroke-linejoin: miter">
<path d="M908.62024,1143.6473L905.311,1144.347L867.51904,1152.3362Q867.51935,1152.3389,867.5198,1152.3417L867.50494,1152.3439L863.834,1153.115Q869.66327,1182.4009,875.4924,1211.6865Q875.8466,1211.6797,876.20087,1211.6731C876.1945,1211.5089,876.18933,1211.3472,876.1856,1211.1886L876.0745,1206.4691L884.89594,1206.5393C895.6609,1206.5638,907.9093,1207.6641,909.80786,1208.6611C910.65234,1209.1277,915.9371,1209.4199,922.326,1209.4083C926.3853,1209.405,930.2334,1209.5293,932.58575,1209.7096L908.62024,1143.6475L908.62024,1143.6473 Z"/>
</g>
<g style="fill:rgb(0,0,0); fill-opacity:1.0; stroke-linejoin: miter">
<path d="M141.11847,718.55804L141.11848,718.55896Q138.00632,718.63196,136.44528,719.0124Q135.81696,719.15656,135.22786,719.38007L134.65105,719.6284Q134.08525,719.8989,133.57344,720.2787Q133.06326,720.6616,132.60704,721.1536Q132.35257,721.3464,131.33533,722.8255Q130.3414,724.35175,128.8545,727.7099L141.11847,718.55804"/>
</g>
<g style="fill:rgb(0,0,0); fill-opacity:1.0; stroke-linejoin: miter">
<path d="M134.70175,729.71484L135.46982,729.478Q140.59952,727.97473,142.652,726.53705Q143.1005,726.2156,143.45154,725.86816Q143.67465,725.70703,144.32976,724.7798Q144.94281,723.84143,145.50069,722.008L134.70175,729.71484"/>
</g>
<g style="fill:rgb(255,255,255); fill-opacity:1.0; stroke-linejoin: miter">
<path d="M900.6648,1106.5448C900.45544,1106.6251,900.27814,1106.6599,900.11536,1106.6637C899.49066,1106.6785,898.73376,1106.9741,898.3256,1107.3308C897.51215,1108.1835,889.38574,1111.0831,887.85864,1111.119C887.16455,1111.1354,886.3383,1111.4327,885.9994,1111.788C885.0472,1112.6436,876.43494,1115.5547,870.84045,1116.8671C864.0635,1118.4114,858.68097,1119.1276,852.9333,1119.1276C852.78094,1119.1276,852.6284,1119.1271,852.4755,1119.126L852.467,1119.127Q857.1002,1136.5947,861.7419,1154.0635Q886.7155,1151.584,911.68915,1149.1046L900.67377,1106.5448 Z"/>
</g>
</g>
</svg>
